<svg width="877" height="630" viewBox="0 0 877 630" fill="none" xmlns="http://www.w3.org/2000/svg">
<rect x="2.5" y="2.5" width="872" height="625" rx="22.5" fill="#F5F5F5" stroke="#B4B4B4" stroke-width="5"/>
<line x1="-2.18557e-07" y1="60.5" x2="877" y2="60.4999" stroke="#B4B4B4" stroke-width="5"/>
<circle cx="36.5" cy="31.5" r="7.5" fill="#D9D9D9"/>
<circle cx="63.5" cy="31.5" r="7.5" fill="#D9D9D9"/>
<circle cx="90.5" cy="31.5" r="7.5" fill="#D9D9D9"/>
<g clip-path="url(#clip0_0_1)">
<path d="M154.276 48C151.897 48 149.773 47.5016 147.904 46.5047C146.064 45.4793 144.619 44.0837 143.572 42.3178C142.524 40.5518 142 38.5438 142 36.2937C142 34.0151 142.524 32.0071 143.572 30.2697C144.619 28.5038 146.064 27.1224 147.904 26.1255C149.773 25.1286 151.897 24.6302 154.276 24.6302C156.485 24.6302 158.425 25.0859 160.095 25.9973C161.794 26.8803 163.083 28.1905 163.961 29.9279L159.883 32.3204C159.203 31.2381 158.368 30.4406 157.377 29.9279C156.414 29.4152 155.366 29.1589 154.233 29.1589C152.931 29.1589 151.756 29.4437 150.708 30.0134C149.66 30.583 148.839 31.409 148.244 32.4913C147.649 33.5452 147.352 34.8126 147.352 36.2937C147.352 37.7748 147.649 39.0565 148.244 40.1389C148.839 41.1927 149.66 42.0045 150.708 42.5741C151.756 43.1437 152.931 43.4286 154.233 43.4286C155.366 43.4286 156.414 43.1722 157.377 42.6595C158.368 42.1469 159.203 41.3494 159.883 40.267L163.961 42.6595C163.083 44.3685 161.794 45.6929 160.095 46.6328C158.425 47.5443 156.485 48 154.276 48ZM164.785 47.7009V16H170.094V47.7009H164.785ZM184.181 48C181.66 48 179.451 47.5016 177.554 46.5047C175.685 45.4793 174.227 44.0837 173.179 42.3178C172.16 40.5518 171.65 38.5438 171.65 36.2937C171.65 34.0151 172.145 32.0071 173.137 30.2697C174.156 28.5038 175.544 27.1224 177.299 26.1255C179.083 25.1286 181.108 24.6302 183.374 24.6302C185.582 24.6302 187.55 25.1144 189.278 26.0828C191.005 27.0512 192.365 28.4183 193.356 30.1842C194.347 31.9502 194.842 34.0294 194.842 36.4219C194.842 36.6498 194.828 36.9061 194.8 37.1909C194.8 37.4757 194.786 37.7463 194.757 38.0027H175.855V34.4566H191.954L189.873 35.5674C189.901 34.2572 189.632 33.1037 189.065 32.1068C188.499 31.1099 187.72 30.3267 186.729 29.757C185.766 29.1874 184.648 28.9025 183.374 28.9025C182.071 28.9025 180.924 29.1874 179.933 29.757C178.97 30.3267 178.205 31.1242 177.639 32.1495C177.101 33.1464 176.832 34.3284 176.832 35.6956V36.5501C176.832 37.9172 177.144 39.1277 177.767 40.1816C178.39 41.2354 179.267 42.0472 180.4 42.6168C181.533 43.1865 182.835 43.4713 184.308 43.4713C185.582 43.4713 186.729 43.2719 187.749 42.8732C188.768 42.4744 189.674 41.8478 190.467 40.9933L193.313 44.283C192.294 45.4793 191.005 46.405 189.448 47.0601C187.919 47.6867 186.163 48 184.181 48ZM209.736 47.7009V43.0868L209.438 42.1041V34.0294C209.438 32.4628 208.971 31.2523 208.037 30.3979C207.102 29.5149 205.686 29.0734 203.789 29.0734C202.515 29.0734 201.255 29.2728 200.009 29.6716C198.791 30.0703 197.757 30.6257 196.908 31.3378L194.826 27.4499C196.044 26.51 197.488 25.8122 199.159 25.3565C200.858 24.8723 202.614 24.6302 204.426 24.6302C207.711 24.6302 210.246 25.4277 212.03 27.0227C213.842 28.5892 214.748 31.0245 214.748 34.3284V47.7009H209.736ZM202.6 48C200.901 48 199.414 47.7152 198.14 47.1455C196.865 46.5474 195.874 45.7356 195.166 44.7103C194.486 43.6564 194.147 42.4744 194.147 41.1642C194.147 39.8825 194.444 38.729 195.039 37.7036C195.662 36.6782 196.667 35.8665 198.055 35.2684C199.442 34.6702 201.283 34.3712 203.577 34.3712H210.161V37.9172H203.959C202.147 37.9172 200.929 38.2163 200.306 38.8144C199.683 39.3841 199.371 40.0961 199.371 40.9506C199.371 41.919 199.754 42.688 200.518 43.2577C201.283 43.8273 202.345 44.1121 203.704 44.1121C205.007 44.1121 206.168 43.8131 207.187 43.215C208.235 42.6168 208.985 41.7339 209.438 40.5661L210.33 43.7704C209.821 45.109 208.9 46.1486 207.569 46.8892C206.267 47.6297 204.61 48 202.6 48ZM218.003 47.7009V24.8865H223.058V31.1669L222.463 29.3298C223.143 27.7917 224.204 26.6239 225.649 25.8264C227.121 25.0289 228.948 24.6302 231.128 24.6302V29.7143C230.902 29.6573 230.689 29.6288 230.491 29.6288C230.293 29.6004 230.095 29.5861 229.896 29.5861C227.886 29.5861 226.286 30.1842 225.096 31.3805C223.907 32.5483 223.312 34.3 223.312 36.6355V47.7009L218.003 47.7009Z" fill="#A6A6A6"/>
<path d="M232.302 47.7009V16H237.611V47.7009H232.302ZM251.697 48C249.177 48 246.968 47.5016 245.071 46.5047C243.202 45.4793 241.744 44.0837 240.696 42.3178C239.676 40.5518 239.167 38.5438 239.167 36.2937C239.167 34.0151 239.662 32.0071 240.653 30.2697C241.673 28.5038 243.06 27.1224 244.816 26.1255C246.6 25.1286 248.625 24.6302 250.89 24.6302C253.099 24.6302 255.067 25.1144 256.795 26.0828C258.522 27.0512 259.881 28.4183 260.873 30.1842C261.864 31.9502 262.359 34.0294 262.359 36.4219C262.359 36.6498 262.345 36.9061 262.317 37.1909C262.317 37.4757 262.303 37.7463 262.274 38.0027H243.372V34.4566H259.471L257.389 35.5674C257.418 34.2572 257.149 33.1037 256.582 32.1068C256.016 31.1099 255.237 30.3267 254.246 29.757C253.283 29.1874 252.165 28.9025 250.89 28.9025C249.588 28.9025 248.441 29.1874 247.45 29.757C246.487 30.3267 245.722 31.1242 245.156 32.1495C244.618 33.1464 244.349 34.3284 244.349 35.6956V36.5501C244.349 37.9172 244.66 39.1277 245.283 40.1816C245.906 41.2354 246.784 42.0472 247.917 42.6168C249.05 43.1865 250.352 43.4713 251.825 43.4713C253.099 43.4713 254.246 43.2719 255.266 42.8732C256.285 42.4744 257.191 41.8478 257.984 40.9933L260.83 44.283C259.811 45.4793 258.522 46.405 256.965 47.0601C255.435 47.6867 253.68 48 251.697 48ZM277.253 47.7009V43.0868L276.955 42.1041V34.0294C276.955 32.4628 276.488 31.2523 275.554 30.3979C274.619 29.5149 273.203 29.0734 271.306 29.0734C270.032 29.0734 268.771 29.2728 267.525 29.6716C266.308 30.0703 265.274 30.6257 264.425 31.3378L262.343 27.4499C263.561 26.51 265.005 25.8122 266.676 25.3565C268.375 24.8723 270.131 24.6302 271.943 24.6302C275.228 24.6302 277.762 25.4277 279.546 27.0227C281.359 28.5892 282.265 31.0245 282.265 34.3284V47.7009H277.253ZM270.117 48C268.417 48 266.931 47.7152 265.656 47.1455C264.382 46.5474 263.391 45.7356 262.683 44.7103C262.003 43.6564 261.664 42.4744 261.664 41.1642C261.664 39.8825 261.961 38.729 262.556 37.7036C263.179 36.6782 264.184 35.8665 265.571 35.2684C266.959 34.6702 268.8 34.3712 271.093 34.3712H277.677V37.9172H271.476C269.663 37.9172 268.446 38.2163 267.823 38.8144C267.2 39.3841 266.888 40.0961 266.888 40.9506C266.888 41.919 267.271 42.688 268.035 43.2577C268.8 43.8273 269.862 44.1121 271.221 44.1121C272.524 44.1121 273.685 43.8131 274.704 43.215C275.752 42.6168 276.502 41.7339 276.955 40.5661L277.847 43.7704C277.338 45.109 276.417 46.1486 275.086 46.8892C273.784 47.6297 272.127 48 270.117 48ZM287.219 48C286.256 48 285.435 47.6725 284.755 47.0174C284.075 46.3338 283.736 45.4793 283.736 44.4539C283.736 43.3716 284.075 42.5171 284.755 41.8905C285.435 41.2354 286.256 40.9079 287.219 40.9079C288.182 40.9079 289.003 41.2354 289.682 41.8905C290.362 42.5171 290.702 43.3716 290.702 44.4539C290.702 45.4793 290.362 46.3338 289.682 47.0174C289.003 47.6725 288.182 48 287.219 48ZM299.351 48C297.454 48 295.627 47.7579 293.872 47.2737C292.144 46.761 290.771 46.1486 289.751 45.4366L291.79 41.3778C292.81 42.0329 294.027 42.5741 295.443 43.0013C296.859 43.4286 298.275 43.6422 299.691 43.6422C301.362 43.6422 302.565 43.4143 303.302 42.9586C304.066 42.5029 304.448 41.8905 304.448 41.1215C304.448 40.4949 304.194 40.0249 303.684 39.7116C303.174 39.3698 302.509 39.1135 301.687 38.9426C300.866 38.7717 299.946 38.615 298.926 38.4726C297.935 38.3302 296.93 38.1451 295.91 37.9172C294.919 37.6609 294.013 37.3049 293.192 36.8491C292.371 36.3649 291.705 35.7241 291.196 34.9266C290.686 34.1291 290.431 33.0752 290.431 31.765C290.431 30.3124 290.842 29.0592 291.663 28.0053C292.484 26.923 293.631 26.097 295.103 25.5274C296.604 24.9292 298.374 24.6302 300.413 24.6302C301.942 24.6302 303.486 24.8011 305.043 25.1429C306.601 25.4846 307.889 25.9688 308.908 26.5955L306.87 30.6542C305.794 29.9991 304.703 29.5576 303.599 29.3298C302.523 29.0734 301.447 28.9453 300.371 28.9453C298.756 28.9453 297.553 29.1874 296.76 29.6716C295.995 30.1558 295.613 30.7681 295.613 31.5087C295.613 32.1923 295.868 32.7049 296.378 33.0467C296.887 33.3885 297.553 33.6591 298.374 33.8585C299.195 34.0579 300.102 34.2287 301.093 34.3712C302.112 34.4851 303.117 34.6702 304.109 34.9266C305.1 35.1829 306.006 35.5389 306.827 35.9947C307.677 36.4219 308.356 37.0343 308.866 37.8318C309.376 38.6293 309.631 39.6689 309.631 40.9506C309.631 42.3747 309.206 43.6137 308.356 44.6676C307.535 45.7214 306.36 46.5474 304.831 47.1455C303.301 47.7152 301.475 48 299.351 48ZM321.338 48C318.818 48 316.609 47.5016 314.712 46.5047C312.843 45.4793 311.384 44.0837 310.337 42.3178C309.317 40.5518 308.807 38.5438 308.807 36.2937C308.807 34.0151 309.303 32.0071 310.294 30.2697C311.314 28.5038 312.701 27.1224 314.457 26.1255C316.241 25.1286 318.266 24.6302 320.531 24.6302C322.74 24.6302 324.708 25.1144 326.435 26.0828C328.163 27.0512 329.522 28.4183 330.513 30.1842C331.504 31.9502 332 34.0294 332 36.4219C332 36.6498 331.986 36.9061 331.958 37.1909C331.958 37.4757 331.943 37.7463 331.915 38.0027H313.013V34.4566H329.112L327.03 35.5674C327.058 34.2572 326.789 33.1037 326.223 32.1068C325.657 31.1099 324.878 30.3267 323.887 29.757C322.924 29.1874 321.805 28.9025 320.531 28.9025C319.229 28.9025 318.082 29.1874 317.091 29.757C316.128 30.3267 315.363 31.1242 314.797 32.1495C314.259 33.1464 313.99 34.3284 313.99 35.6956V36.5501C313.99 37.9172 314.301 39.1277 314.924 40.1816C315.547 41.2354 316.425 42.0472 317.558 42.6168C318.69 43.1865 319.993 43.4713 321.466 43.4713C322.74 43.4713 323.887 43.2719 324.906 42.8732C325.926 42.4744 326.832 41.8478 327.625 40.9933L330.471 44.283C329.451 45.4793 328.163 46.405 326.605 47.0601C325.076 47.6867 323.32 48 321.338 48Z" fill="#D9D9D9"/>
</g>
<path d="M144.081 121C157.434 121 170.453 125.171 181.32 132.931C192.187 140.691 200.358 151.651 204.693 164.281C209.027 176.911 209.307 190.579 205.495 203.376C201.683 216.173 193.968 227.46 183.429 235.659C172.89 243.858 160.053 248.56 146.711 249.108C133.369 249.656 120.19 246.023 109.014 238.716C97.8376 231.409 89.2233 220.793 84.3744 208.351C79.5255 195.91 78.6842 182.265 81.9681 169.322L144.081 185.081L144.081 121Z" fill="#D9D9D9"/>
<circle cx="144.081" cy="185.244" r="63.0812" stroke="#B4B4B4" stroke-width="2"/>
<rect x="287.162" y="249.325" width="67.85" height="33.8235" rx="5" transform="rotate(-90 287.162 249.325)" fill="#D9D9D9"/>
<rect x="368.339" y="249.325" width="40.25" height="33.8235" rx="5" transform="rotate(-90 368.339 249.325)" fill="#D9D9D9"/>
<rect x="328.878" y="249.325" width="115" height="33.8235" rx="5" transform="rotate(-90 328.878 249.325)" fill="#A6A6A6"/>
<path d="M481.162 249.325C481.162 249.325 508.133 178.439 521.619 179.008C535.106 179.577 538.891 208.969 552.38 209.053C565.87 209.136 590.162 148.325 590.162 148.325" stroke="#A6A6A6" stroke-width="3" stroke-linecap="round"/>
<path d="M733.244 121C746.596 121 759.616 125.171 770.483 132.931C781.349 140.691 789.521 151.651 793.855 164.281C798.189 176.911 798.47 190.579 794.658 203.376C790.845 216.173 783.131 227.46 772.591 235.659C762.052 243.858 749.215 248.56 735.873 249.108C722.532 249.656 709.352 246.023 698.176 238.716C687 231.409 678.386 220.793 673.537 208.351C668.688 195.91 667.847 182.265 671.13 169.322L733.244 185.081L733.244 121Z" fill="#D9D9D9"/>
<circle cx="733.244" cy="185.244" r="63.0812" stroke="#B4B4B4" stroke-width="2"/>
<rect x="187" y="400" width="59" height="16" rx="5" fill="#D9D9D9"/>
<rect x="187" y="453" width="59" height="16" rx="5" fill="#D9D9D9"/>
<rect x="187" y="506" width="59" height="16" rx="5" fill="#D9D9D9"/>
<rect x="187" y="559" width="59" height="16" rx="5" fill="#D9D9D9"/>
<rect x="316" y="400" width="59" height="16" rx="5" fill="#D9D9D9"/>
<rect x="316" y="453" width="59" height="16" rx="5" fill="#D9D9D9"/>
<rect x="316" y="506" width="59" height="16" rx="5" fill="#D9D9D9"/>
<rect x="316" y="559" width="59" height="16" rx="5" fill="#D9D9D9"/>
<rect x="445" y="400" width="59" height="16" rx="5" fill="#D9D9D9"/>
<rect x="445" y="453" width="59" height="16" rx="5" fill="#D9D9D9"/>
<rect x="445" y="506" width="59" height="16" rx="5" fill="#D9D9D9"/>
<rect x="445" y="559" width="59" height="16" rx="5" fill="#D9D9D9"/>
<rect x="574" y="400" width="59" height="16" rx="5" fill="#D9D9D9"/>
<rect x="574" y="453" width="59" height="16" rx="5" fill="#D9D9D9"/>
<rect x="574" y="506" width="59" height="16" rx="5" fill="#D9D9D9"/>
<rect x="574" y="559" width="59" height="16" rx="5" fill="#D9D9D9"/>
<rect x="703" y="400" width="59" height="16" rx="5" fill="#D9D9D9"/>
<rect x="703" y="453" width="59" height="16" rx="5" fill="#D9D9D9"/>
<rect x="703" y="506" width="59" height="16" rx="5" fill="#D9D9D9"/>
<rect x="703" y="559" width="59" height="16" rx="5" fill="#D9D9D9"/>
<rect x="165" y="346" width="104" height="16" rx="5" fill="#A6A6A6"/>
<rect x="294" y="346" width="104" height="16" rx="5" fill="#A6A6A6"/>
<rect x="423" y="346" width="104" height="16" rx="5" fill="#A6A6A6"/>
<rect x="552" y="346" width="104" height="16" rx="5" fill="#A6A6A6"/>
<rect x="681" y="346" width="104" height="16" rx="5" fill="#A6A6A6"/>
<rect x="80" y="332" width="57" height="278" fill="#F5F5F5"/>
<line x1="83" y1="380" x2="800" y2="380" stroke="#B4B4B4" stroke-width="2"/>
<path d="M103 421.333V408H111V421.333M95 404L107 394.667L119 404V418.667C119 419.374 118.719 420.052 118.219 420.552C117.719 421.052 117.041 421.333 116.333 421.333H97.6667C96.9594 421.333 96.2811 421.052 95.781 420.552C95.281 420.052 95 419.374 95 418.667V404Z" stroke="#A6A6A6" stroke-width="4" stroke-linecap="round" stroke-linejoin="round"/>
<path d="M103 474.333V461H111V474.333M95 457L107 447.667L119 457V471.667C119 472.374 118.719 473.052 118.219 473.552C117.719 474.052 117.041 474.333 116.333 474.333H97.6667C96.9594 474.333 96.2811 474.052 95.781 473.552C95.281 473.052 95 472.374 95 471.667V457Z" stroke="#A6A6A6" stroke-width="4" stroke-linecap="round" stroke-linejoin="round"/>
<path d="M103 527.333V514H111V527.333M95 510L107 500.667L119 510V524.667C119 525.374 118.719 526.052 118.219 526.552C117.719 527.052 117.041 527.333 116.333 527.333H97.6667C96.9594 527.333 96.2811 527.052 95.781 526.552C95.281 526.052 95 525.374 95 524.667V510Z" stroke="#A6A6A6" stroke-width="4" stroke-linecap="round" stroke-linejoin="round"/>
<path d="M103 580.333V567H111V580.333M95 563L107 553.667L119 563V577.667C119 578.374 118.719 579.052 118.219 579.552C117.719 580.052 117.041 580.333 116.333 580.333H97.6667C96.9594 580.333 96.2811 580.052 95.781 579.552C95.281 579.052 95 578.374 95 577.667V563Z" stroke="#A6A6A6" stroke-width="4" stroke-linecap="round" stroke-linejoin="round"/>
<defs>
<clipPath id="clip0_0_1">
<rect width="190" height="32" fill="white" transform="translate(142 16)"/>
</clipPath>
</defs>
</svg>