<svg width="1229" height="640" viewBox="0 0 1229 640" fill="none" xmlns="http://www.w3.org/2000/svg">
<rect x="319.5" y="2.5" width="886" height="635" rx="22.5" fill="#F5F5F5" stroke="#B4B4B4" stroke-width="5"/>
<line x1="317" y1="61.5" x2="1208" y2="61.4999" stroke="#B4B4B4" stroke-width="5"/>
<ellipse cx="354.083" cy="31.9999" rx="7.61973" ry="7.61905" fill="#D9D9D9"/>
<ellipse cx="381.514" cy="31.9999" rx="7.61973" ry="7.61905" fill="#D9D9D9"/>
<ellipse cx="408.945" cy="31.9999" rx="7.61972" ry="7.61905" fill="#D9D9D9"/>
<g clip-path="url(#clip0_0_1)">
<path d="M473.739 48.7618C471.322 48.7618 469.164 48.2555 467.265 47.2428C465.395 46.2011 463.928 44.7833 462.864 42.9894C461.799 41.1955 461.267 39.1556 461.267 36.8698C461.267 34.555 461.799 32.5151 462.864 30.7501C463.928 28.9562 465.395 27.5528 467.265 26.5401C469.164 25.5274 471.322 25.0211 473.739 25.0211C475.983 25.0211 477.954 25.484 479.651 26.4099C481.377 27.3069 482.686 28.6379 483.578 30.4029L479.435 32.8334C478.745 31.7339 477.896 30.9237 476.889 30.4029C475.911 29.8821 474.846 29.6217 473.696 29.6217C472.372 29.6217 471.178 29.911 470.114 30.4897C469.049 31.0684 468.215 31.9075 467.611 33.007C467.006 34.0776 466.704 35.3652 466.704 36.8698C466.704 38.3743 467.006 39.6764 467.611 40.7759C468.215 41.8465 469.049 42.6711 470.114 43.2498C471.178 43.8285 472.372 44.1178 473.696 44.1178C474.846 44.1178 475.911 43.8574 476.889 43.3366C477.896 42.8158 478.745 42.0056 479.435 40.9061L483.578 43.3366C482.686 45.0727 481.377 46.4181 479.651 47.373C477.954 48.2989 475.983 48.7618 473.739 48.7618ZM484.415 48.458V16.2539H489.81V48.458H484.415ZM504.121 48.7618C501.56 48.7618 499.316 48.2555 497.389 47.2428C495.49 46.2011 494.008 44.7833 492.944 42.9894C491.908 41.1955 491.39 39.1556 491.39 36.8698C491.39 34.555 491.893 32.5151 492.9 30.7501C493.936 28.9562 495.346 27.5528 497.13 26.5401C498.942 25.5274 500.999 25.0211 503.301 25.0211C505.545 25.0211 507.544 25.513 509.299 26.4967C511.054 27.4805 512.435 28.8694 513.442 30.6633C514.449 32.4572 514.953 34.5695 514.953 37C514.953 37.2314 514.938 37.4918 514.91 37.7812C514.91 38.0705 514.895 38.3454 514.866 38.6058H495.662V35.0035H512.018L509.904 36.1319C509.932 34.8009 509.659 33.6291 509.084 32.6164C508.508 31.6037 507.717 30.808 506.71 30.2293C505.732 29.6506 504.595 29.3612 503.301 29.3612C501.977 29.3612 500.812 29.6506 499.805 30.2293C498.827 30.808 498.05 31.6181 497.475 32.6598C496.928 33.6725 496.655 34.8733 496.655 36.2621V37.1302C496.655 38.519 496.971 39.7487 497.604 40.8193C498.237 41.8899 499.129 42.7145 500.28 43.2932C501.431 43.8719 502.754 44.1613 504.25 44.1613C505.545 44.1613 506.71 43.9587 507.746 43.5536C508.782 43.1485 509.702 42.512 510.508 41.644L513.399 44.9859C512.363 46.2011 511.054 47.1415 509.472 47.807C507.918 48.4436 506.135 48.7618 504.121 48.7618ZM530.084 48.458V43.7706L529.782 42.7724V34.5695C529.782 32.9781 529.307 31.7483 528.358 30.8803C527.408 29.9833 525.97 29.5349 524.042 29.5349C522.748 29.5349 521.467 29.7374 520.201 30.1425C518.964 30.5476 517.914 31.1118 517.051 31.8351L514.936 27.8856C516.174 26.9307 517.641 26.2218 519.338 25.7589C521.064 25.267 522.848 25.0211 524.689 25.0211C528.027 25.0211 530.602 25.8312 532.414 27.4516C534.256 29.043 535.176 31.5169 535.176 34.8733V48.458H530.084ZM522.834 48.7618C521.108 48.7618 519.597 48.4725 518.303 47.8938C517.008 47.2862 516.001 46.4615 515.282 45.4199C514.591 44.3493 514.246 43.1485 514.246 41.8176C514.246 40.5155 514.548 39.3437 515.152 38.302C515.785 37.2604 516.806 36.4357 518.216 35.8281C519.626 35.2205 521.496 34.9167 523.826 34.9167H530.515V38.519H524.215C522.373 38.519 521.136 38.8228 520.503 39.4305C519.87 40.0091 519.554 40.7325 519.554 41.6005C519.554 42.5843 519.942 43.3656 520.719 43.9442C521.496 44.5229 522.575 44.8123 523.956 44.8123C525.279 44.8123 526.459 44.5085 527.495 43.9008C528.559 43.2932 529.321 42.3962 529.782 41.2099L530.688 44.4651C530.17 45.825 529.235 46.8811 527.883 47.6334C526.56 48.3857 524.877 48.7618 522.834 48.7618ZM538.483 48.458V25.2815H543.618V31.6615L543.014 29.7953C543.705 28.2328 544.784 27.0465 546.251 26.2363C547.747 25.4262 549.603 25.0211 551.818 25.0211V30.1859C551.588 30.128 551.372 30.0991 551.171 30.0991C550.969 30.0701 550.768 30.0557 550.566 30.0557C548.524 30.0557 546.898 30.6633 545.69 31.8785C544.481 33.0649 543.877 34.8443 543.877 37.217V48.458L538.483 48.458Z" fill="#A6A6A6"/>
<path d="M553.01 48.458V16.2539H558.404V48.458H553.01ZM572.715 48.7618C570.155 48.7618 567.911 48.2555 565.983 47.2428C564.084 46.2011 562.603 44.7833 561.538 42.9894C560.503 41.1955 559.985 39.1556 559.985 36.8698C559.985 34.555 560.488 32.5151 561.495 30.7501C562.531 28.9562 563.941 27.5528 565.724 26.5401C567.537 25.5274 569.594 25.0211 571.896 25.0211C574.14 25.0211 576.139 25.513 577.894 26.4967C579.649 27.4805 581.03 28.8694 582.037 30.6633C583.044 32.4572 583.547 34.5695 583.547 37C583.547 37.2314 583.533 37.4918 583.504 37.7812C583.504 38.0705 583.49 38.3454 583.461 38.6058H564.257V35.0035H580.613L578.498 36.1319C578.527 34.8009 578.254 33.6291 577.678 32.6164C577.103 31.6037 576.312 30.808 575.305 30.2293C574.327 29.6506 573.19 29.3612 571.896 29.3612C570.572 29.3612 569.407 29.6506 568.4 30.2293C567.422 30.808 566.645 31.6181 566.07 32.6598C565.523 33.6725 565.25 34.8733 565.25 36.2621V37.1302C565.25 38.519 565.566 39.7487 566.199 40.8193C566.832 41.8899 567.724 42.7145 568.875 43.2932C570.025 43.8719 571.349 44.1613 572.845 44.1613C574.14 44.1613 575.305 43.9587 576.341 43.5536C577.376 43.1485 578.297 42.512 579.102 41.644L581.994 44.9859C580.958 46.2011 579.649 47.1415 578.067 47.807C576.513 48.4436 574.729 48.7618 572.715 48.7618ZM598.679 48.458V43.7706L598.377 42.7724V34.5695C598.377 32.9781 597.902 31.7483 596.952 30.8803C596.003 29.9833 594.564 29.5349 592.637 29.5349C591.342 29.5349 590.062 29.7374 588.796 30.1425C587.559 30.5476 586.509 31.1118 585.646 31.8351L583.531 27.8856C584.768 26.9307 586.236 26.2218 587.933 25.7589C589.659 25.267 591.443 25.0211 593.284 25.0211C596.622 25.0211 599.196 25.8312 601.009 27.4516C602.85 29.043 603.771 31.5169 603.771 34.8733V48.458H598.679ZM591.429 48.7618C589.702 48.7618 588.192 48.4725 586.897 47.8938C585.603 47.2862 584.596 46.4615 583.876 45.4199C583.186 44.3493 582.841 43.1485 582.841 41.8176C582.841 40.5155 583.143 39.3437 583.747 38.302C584.38 37.2604 585.401 36.4357 586.811 35.8281C588.221 35.2205 590.091 34.9167 592.421 34.9167H599.11V38.519H592.809C590.968 38.519 589.731 38.8228 589.098 39.4305C588.465 40.0091 588.149 40.7325 588.149 41.6005C588.149 42.5843 588.537 43.3656 589.314 43.9442C590.091 44.5229 591.17 44.8123 592.551 44.8123C593.874 44.8123 595.054 44.5085 596.089 43.9008C597.154 43.2932 597.916 42.3962 598.377 41.2099L599.283 44.4651C598.765 45.825 597.83 46.8811 596.478 47.6334C595.154 48.3857 593.471 48.7618 591.429 48.7618ZM608.804 48.7618C607.826 48.7618 606.991 48.4291 606.301 47.7636C605.61 47.0692 605.265 46.2011 605.265 45.1595C605.265 44.06 605.61 43.1919 606.301 42.5554C606.991 41.8899 607.826 41.5571 608.804 41.5571C609.782 41.5571 610.616 41.8899 611.307 42.5554C611.997 43.1919 612.343 44.06 612.343 45.1595C612.343 46.2011 611.997 47.0692 611.307 47.7636C610.616 48.4291 609.782 48.7618 608.804 48.7618ZM621.13 48.7618C619.202 48.7618 617.347 48.5159 615.563 48.024C613.808 47.5032 612.412 46.8811 611.377 46.1577L613.448 42.0346C614.484 42.7001 615.721 43.2498 617.16 43.6838C618.598 44.1179 620.037 44.3349 621.475 44.3349C623.173 44.3349 624.395 44.1034 625.143 43.6404C625.92 43.1775 626.308 42.5554 626.308 41.7742C626.308 41.1376 626.05 40.6602 625.532 40.3419C625.014 39.9947 624.338 39.7343 623.503 39.5607C622.669 39.3871 621.734 39.2279 620.698 39.0832C619.691 38.9386 618.67 38.7505 617.634 38.519C616.627 38.2586 615.707 37.8969 614.872 37.434C614.038 36.9421 613.362 36.2911 612.844 35.4809C612.326 34.6707 612.067 33.6002 612.067 32.2692C612.067 30.7935 612.484 29.5204 613.319 28.4498C614.153 27.3503 615.318 26.5112 616.814 25.9325C618.339 25.3249 620.137 25.0211 622.209 25.0211C623.762 25.0211 625.33 25.1947 626.913 25.5419C628.495 25.8891 629.804 26.381 630.84 27.0175L628.768 31.1407C627.675 30.4752 626.567 30.0267 625.445 29.7953C624.352 29.5349 623.259 29.4046 622.166 29.4046C620.526 29.4046 619.303 29.6506 618.497 30.1425C617.721 30.6344 617.332 31.2565 617.332 32.0088C617.332 32.7032 617.591 33.224 618.109 33.5712C618.627 33.9184 619.303 34.1933 620.137 34.3959C620.972 34.5984 621.892 34.772 622.899 34.9167C623.935 35.0324 624.956 35.2205 625.963 35.4809C626.97 35.7413 627.891 36.103 628.725 36.5659C629.588 37 630.279 37.6221 630.797 38.4322C631.314 39.2424 631.573 40.2985 631.573 41.6005C631.573 43.0473 631.142 44.3059 630.279 45.3765C629.444 46.4471 628.25 47.2862 626.697 47.8938C625.143 48.4725 623.288 48.7618 621.13 48.7618ZM643.468 48.7618C640.907 48.7618 638.663 48.2555 636.736 47.2428C634.837 46.2011 633.355 44.7833 632.291 42.9894C631.255 41.1955 630.737 39.1556 630.737 36.8698C630.737 34.555 631.241 32.5151 632.248 30.7501C633.283 28.9562 634.693 27.5528 636.477 26.5401C638.289 25.5274 640.346 25.0211 642.648 25.0211C644.892 25.0211 646.892 25.513 648.647 26.4967C650.402 27.4805 651.782 28.8694 652.789 30.6633C653.796 32.4572 654.3 34.5695 654.3 37C654.3 37.2314 654.285 37.4918 654.257 37.7812C654.257 38.0705 654.242 38.3454 654.214 38.6058H635.009V35.0035H651.365L649.251 36.1319C649.279 34.8009 649.006 33.6291 648.431 32.6164C647.855 31.6037 647.064 30.808 646.057 30.2293C645.079 29.6506 643.943 29.3612 642.648 29.3612C641.325 29.3612 640.159 29.6506 639.152 30.2293C638.174 30.808 637.397 31.6181 636.822 32.6598C636.275 33.6725 636.002 34.8733 636.002 36.2621V37.1302C636.002 38.519 636.319 39.7487 636.951 40.8193C637.584 41.8899 638.476 42.7145 639.627 43.2932C640.778 43.8719 642.101 44.1613 643.597 44.1613C644.892 44.1613 646.057 43.9587 647.093 43.5536C648.129 43.1485 649.049 42.512 649.855 41.644L652.746 44.9859C651.711 46.2011 650.402 47.1415 648.819 47.807C647.266 48.4436 645.482 48.7618 643.468 48.7618Z" fill="#D9D9D9"/>
</g>
<path d="M462.081 123C475.434 123 488.453 127.171 499.32 134.931C510.187 142.691 518.358 153.651 522.693 166.281C527.027 178.911 527.307 192.579 523.495 205.376C519.683 218.173 511.968 229.46 501.429 237.659C490.89 245.858 478.053 250.56 464.711 251.108C451.369 251.656 438.19 248.023 427.014 240.716C415.838 233.409 407.223 222.793 402.374 210.351C397.526 197.91 396.684 184.265 399.968 171.322L462.081 187.081L462.081 123Z" fill="#D9D9D9"/>
<circle cx="462.081" cy="187.244" r="63.0812" stroke="#B4B4B4" stroke-width="2"/>
<rect x="608.534" y="253" width="68.7358" height="34.374" rx="5" transform="rotate(-90 608.534 253)" fill="#D9D9D9"/>
<rect x="691.032" y="253" width="40.7755" height="34.374" rx="5" transform="rotate(-90 691.032 253)" fill="#D9D9D9"/>
<rect x="650.929" y="253" width="116.501" height="34.3741" rx="5" transform="rotate(-90 650.929 253)" fill="#A6A6A6"/>
<path d="M799.162 251.325C799.162 251.325 826.133 180.439 839.619 181.008C853.106 181.577 856.891 210.969 870.38 211.053C883.87 211.136 908.162 150.325 908.162 150.325" stroke="#A6A6A6" stroke-width="3" stroke-linecap="round"/>
<path d="M1051.24 123C1064.6 123 1077.62 127.171 1088.48 134.931C1099.35 142.691 1107.52 153.651 1111.85 166.281C1116.19 178.911 1116.47 192.579 1112.66 205.376C1108.85 218.173 1101.13 229.46 1090.59 237.659C1080.05 245.858 1067.22 250.56 1053.87 251.108C1040.53 251.656 1027.35 248.023 1016.18 240.716C1005 233.409 996.386 222.793 991.537 210.351C986.688 197.91 985.847 184.265 989.13 171.322L1051.24 187.081L1051.24 123Z" fill="#D9D9D9"/>
<circle cx="1051.24" cy="187.244" r="63.0812" stroke="#B4B4B4" stroke-width="2"/>
<rect x="507" y="406" width="60" height="17" rx="5" fill="#D9D9D9"/>
<rect x="507" y="460" width="60" height="16" rx="5" fill="#D9D9D9"/>
<rect x="507" y="514" width="60" height="16" rx="5" fill="#D9D9D9"/>
<rect x="507" y="568" width="60" height="16" rx="5" fill="#D9D9D9"/>
<rect x="638" y="406" width="60" height="17" rx="5" fill="#D9D9D9"/>
<rect x="638" y="460" width="60" height="16" rx="5" fill="#D9D9D9"/>
<rect x="638" y="514" width="60" height="16" rx="5" fill="#D9D9D9"/>
<rect x="638" y="568" width="60" height="16" rx="5" fill="#D9D9D9"/>
<rect x="769" y="406" width="60" height="17" rx="5" fill="#D9D9D9"/>
<rect x="769" y="460" width="60" height="16" rx="5" fill="#D9D9D9"/>
<rect x="769" y="514" width="60" height="16" rx="5" fill="#D9D9D9"/>
<rect x="769" y="568" width="60" height="16" rx="5" fill="#D9D9D9"/>
<rect x="900" y="406" width="60" height="17" rx="5" fill="#D9D9D9"/>
<rect x="900" y="460" width="60" height="16" rx="5" fill="#D9D9D9"/>
<rect x="900" y="514" width="60" height="16" rx="5" fill="#D9D9D9"/>
<rect x="900" y="568" width="60" height="16" rx="5" fill="#D9D9D9"/>
<rect x="1031" y="406" width="60" height="17" rx="5" fill="#D9D9D9"/>
<rect x="1031" y="460" width="60" height="16" rx="5" fill="#D9D9D9"/>
<rect x="1031" y="514" width="60" height="16" rx="5" fill="#D9D9D9"/>
<rect x="1031" y="568" width="60" height="16" rx="5" fill="#D9D9D9"/>
<rect x="484" y="351" width="106" height="17" rx="5" fill="#A6A6A6"/>
<rect x="616" y="351" width="105" height="17" rx="5" fill="#A6A6A6"/>
<rect x="747" y="351" width="105" height="17" rx="5" fill="#A6A6A6"/>
<rect x="878" y="351" width="105" height="17" rx="5" fill="#A6A6A6"/>
<rect x="1009" y="351" width="105" height="17" rx="5" fill="#A6A6A6"/>
<rect x="398" y="337" width="58" height="283" fill="#F5F5F5"/>
<line x1="401" y1="386" x2="1129" y2="386" stroke="#B4B4B4" stroke-width="2"/>
<path d="M421.375 428.25V414.5H429.625V428.25M413.125 410.375L425.5 400.75L437.875 410.375V425.5C437.875 426.229 437.585 426.929 437.07 427.445C436.554 427.96 435.854 428.25 435.125 428.25H415.875C415.146 428.25 414.446 427.96 413.93 427.445C413.415 426.929 413.125 426.229 413.125 425.5V410.375Z" stroke="#A6A6A6" stroke-width="4" stroke-linecap="round" stroke-linejoin="round"/>
<path d="M421.375 481.333V468H429.625V481.333M413.125 464L425.5 454.667L437.875 464V478.667C437.875 479.374 437.585 480.052 437.07 480.552C436.554 481.052 435.854 481.333 435.125 481.333H415.875C415.146 481.333 414.446 481.052 413.93 480.552C413.415 480.052 413.125 479.374 413.125 478.667V464Z" stroke="#A6A6A6" stroke-width="4" stroke-linecap="round" stroke-linejoin="round"/>
<path d="M421.375 535.333V522H429.625V535.333M413.125 518L425.5 508.667L437.875 518V532.667C437.875 533.374 437.585 534.052 437.07 534.552C436.554 535.052 435.854 535.333 435.125 535.333H415.875C415.146 535.333 414.446 535.052 413.93 534.552C413.415 534.052 413.125 533.374 413.125 532.667V518Z" stroke="#A6A6A6" stroke-width="4" stroke-linecap="round" stroke-linejoin="round"/>
<path d="M421.375 589.333V576H429.625V589.333M413.125 572L425.5 562.667L437.875 572V586.667C437.875 587.374 437.585 588.052 437.07 588.552C436.554 589.052 435.854 589.333 435.125 589.333H415.875C415.146 589.333 414.446 589.052 413.93 588.552C413.415 588.052 413.125 587.374 413.125 586.667V572Z" stroke="#A6A6A6" stroke-width="4" stroke-linecap="round" stroke-linejoin="round"/>
<rect x="75.5" y="141.5" width="199" height="257" rx="25.5" fill="#F7F7F7" stroke="#B4B4B4" stroke-width="3"/>
<rect x="153.154" y="156.448" width="44.326" height="6.32603" rx="3.16302" fill="#A6A6A6"/>
<rect x="147.455" y="180.487" width="55.7241" height="6.32603" rx="3.16302" fill="#A6A6A6"/>
<rect x="155.053" y="189.976" width="40.5266" height="6.32603" rx="3.16302" fill="#D9D9D9"/>
<rect x="151.254" y="199.465" width="48.1254" height="6.32603" rx="3.16302" fill="#A6A6A6"/>
<rect x="147.455" y="217.178" width="55.7241" height="6.32603" rx="3.16302" fill="#A6A6A6"/>
<rect x="155.053" y="226.667" width="40.5266" height="6.32603" rx="3.16302" fill="#A6A6A6"/>
<rect x="149.354" y="236.156" width="51.9248" height="6.32603" rx="3.16302" fill="#D9D9D9"/>
<rect x="94.8965" y="269.684" width="38.627" height="6.32603" rx="3.16302" fill="#D9D9D9"/>
<rect x="136.69" y="269.684" width="31.0282" height="6.32603" rx="3.16302" fill="#A6A6A6"/>
<rect x="170.884" y="269.684" width="77.8872" height="6.32603" rx="3.16302" fill="#D9D9D9"/>
<rect x="94.8965" y="288.662" width="42.4263" height="6.32603" rx="3.16302" fill="#A6A6A6"/>
<rect x="140.489" y="288.662" width="105.749" height="6.32603" rx="3.16302" fill="#D9D9D9"/>
<rect x="95.5298" y="298.151" width="112.082" height="6.32603" rx="3.16302" fill="#D9D9D9"/>
<rect x="96.163" y="316.496" width="153.241" height="6.32603" rx="3.16302" fill="#D9D9D9"/>
<rect x="96.163" y="325.985" width="41.7931" height="6.32603" rx="3.16302" fill="#D9D9D9"/>
<rect x="141.122" y="325.985" width="41.7931" height="6.32603" rx="3.16302" fill="#A6A6A6"/>
<rect x="186.082" y="325.985" width="41.7931" height="6.32603" rx="3.16302" fill="#A6A6A6"/>
<rect x="96.163" y="335.474" width="157.041" height="6.32603" rx="3.16302" fill="#D9D9D9"/>
<rect x="95.5298" y="344.963" width="130.445" height="6.32602" rx="3.16301" fill="#D9D9D9"/>
<rect x="94.8965" y="279.173" width="160.207" height="6.32603" rx="3.16302" fill="#D9D9D9"/>
<path d="M106.295 370.42C106.295 370.42 140.67 361.406 146.188 362.829C156.003 365.359 113.985 372.709 124.658 375.164C135.331 377.619 145.238 372.002 136.056 378.328C131.657 381.359 130.357 381.807 130.357 381.807M200.646 370.42C200.646 370.42 235.021 361.406 240.539 362.829C250.354 365.36 208.336 372.71 219.009 375.164C229.683 377.619 239.589 372.002 230.408 378.328C226.008 381.359 224.708 381.807 224.708 381.807" stroke="#A6A6A6" stroke-width="3" stroke-linecap="round" stroke-linejoin="round"/>
<rect x="1" y="375" width="146" height="86" fill="#F7F7F7" stroke="#A6A6A6" stroke-width="2"/>
<path d="M74 402.322L1.0137 375.011H146.986L74 402.322Z" fill="#F7F7F7" stroke="#A6A6A6" stroke-width="2"/>
<path d="M72.6846 452.889C68.9574 452.889 65.6221 452.384 62.679 451.372C59.7471 450.372 57.2585 448.906 55.213 446.975C53.1676 445.043 51.6051 442.696 50.5255 439.935C49.446 437.173 48.9005 434.037 48.8892 430.526C48.9005 427.026 49.446 423.827 50.5255 420.929C51.6051 418.02 53.1846 415.509 55.2642 413.395C57.3551 411.27 59.9176 409.628 62.9517 408.469C65.9858 407.31 69.4574 406.73 73.3665 406.73C76.8892 406.73 80.0653 407.213 82.8949 408.179C85.7358 409.134 88.1619 410.543 90.1733 412.406C92.196 414.259 93.7415 416.537 94.8096 419.242C95.8892 421.946 96.4233 425.048 96.4119 428.548C96.4233 430.935 96.1733 433.026 95.6619 434.821C95.1505 436.605 94.3949 438.111 93.3949 439.338C92.3949 440.565 91.1676 441.52 89.713 442.202C88.2699 442.884 86.6165 443.31 84.7528 443.48C83.0824 443.639 81.8835 443.56 81.1562 443.242C80.429 442.923 79.9574 442.469 79.7415 441.878C79.5255 441.287 79.3551 440.662 79.2301 440.003H79.0255C78.7642 440.707 78.1562 441.321 77.2017 441.844C76.2471 442.367 75.1221 442.759 73.8267 443.02C72.5312 443.281 71.2415 443.367 69.9574 443.276C68.7074 443.185 67.4574 442.884 66.2074 442.372C64.9574 441.861 63.8096 441.094 62.7642 440.071C61.7301 439.048 60.9005 437.736 60.2755 436.134C59.6505 434.52 59.3324 432.582 59.321 430.321C59.3324 428.048 59.6449 426.117 60.2585 424.526C60.8835 422.935 61.6846 421.622 62.6619 420.588C63.6505 419.554 64.713 418.759 65.8494 418.202C66.9971 417.645 68.0937 417.276 69.1392 417.094C70.5142 416.844 71.8494 416.815 73.1449 417.009C74.4403 417.19 75.5426 417.503 76.4517 417.946C77.3608 418.378 77.9233 418.844 78.1392 419.344H78.4119V417.435H84.8892V434.889C84.9119 435.571 85.0255 436.026 85.2301 436.253C85.446 436.48 85.696 436.594 85.9801 436.594C86.5142 436.594 87.0142 436.287 87.4801 435.673C87.9574 435.048 88.338 434.1 88.6221 432.827C88.9176 431.543 89.0596 429.912 89.0483 427.935C89.0596 425.389 88.7301 423.264 88.0596 421.56C87.4005 419.844 86.5142 418.469 85.4005 417.435C84.2869 416.389 83.0426 415.605 81.6676 415.082C80.304 414.548 78.9005 414.196 77.4574 414.026C76.0142 413.844 74.6505 413.753 73.3665 413.753C70.4233 413.753 67.8892 414.196 65.7642 415.082C63.6505 415.957 61.9119 417.162 60.5483 418.696C59.1846 420.219 58.1733 421.963 57.5142 423.929C56.8665 425.884 56.5369 427.946 56.5255 430.117C56.5369 432.673 56.9062 434.929 57.6335 436.884C58.3721 438.838 59.446 440.475 60.8551 441.793C62.2755 443.111 64.0199 444.105 66.088 444.776C68.1676 445.457 70.5483 445.798 73.2301 445.798C74.5824 445.798 75.8949 445.719 77.1676 445.56C78.4403 445.412 79.6108 445.207 80.679 444.946C81.7471 444.696 82.6505 444.412 83.3892 444.094L85.571 450.23C84.8551 450.707 83.8494 451.145 82.554 451.543C81.2699 451.952 79.7812 452.276 78.088 452.514C76.4062 452.764 74.6051 452.889 72.6846 452.889ZM72.6846 436.253C73.9915 436.253 75.0142 436.014 75.7528 435.537C76.5028 435.048 77.0255 434.344 77.321 433.423C77.6278 432.492 77.7642 431.367 77.7301 430.048C77.7187 429.048 77.588 428.117 77.338 427.253C77.0994 426.378 76.6108 425.673 75.8721 425.139C75.1449 424.594 74.0369 424.321 72.5483 424.321C71.3096 424.321 70.2585 424.543 69.3949 424.986C68.5426 425.418 67.8892 426.065 67.4346 426.929C66.9915 427.781 66.7642 428.844 66.7528 430.117C66.7642 431.162 66.9517 432.156 67.3153 433.1C67.6903 434.031 68.304 434.793 69.1562 435.384C70.0199 435.963 71.196 436.253 72.6846 436.253Z" fill="#A6A6A6"/>
<path d="M750.618 337.109C754.435 331.31 762.854 331.069 766.996 336.641L786.075 362.302C789.094 366.362 793.856 368.755 798.915 368.755H1216C1221.52 368.755 1226 373.232 1226 378.755V528.877C1226 534.4 1221.52 538.877 1216 538.877H298.412C292.89 538.877 288.412 534.4 288.412 528.877V378.755L288.425 378.24C288.693 372.957 293.062 368.755 298.412 368.755H721.166C726.549 368.755 731.571 366.048 734.531 361.552L750.618 337.109Z" fill="#247BA0" fill-opacity="0.52" stroke="#247BA0" stroke-width="6"/>
<rect x="327.54" y="432.158" width="739.479" height="63.0207" rx="7.5" fill="#F7F7F7" stroke="#D9D9D9" stroke-width="3"/>
<rect x="601.296" y="445.893" width="166.575" height="35.5496" rx="9" fill="#DAE2E5"/>
<rect x="877.567" y="445.893" width="166.575" height="35.5496" rx="9" fill="#CFF1FF"/>
<path d="M361.293 454.486V471.94H359.248L349.737 458.236H349.566V471.94H347.452V454.486H349.498L359.043 468.225H359.214V454.486H361.293ZM365.523 471.94V454.486H367.636V463.145H367.841L375.682 454.486H378.443L371.114 462.361L378.443 471.94H375.886L369.818 463.827L367.636 466.281V471.94H365.523ZM388.645 454.486L393.827 469.179H394.031L399.213 454.486H401.429L395.02 471.94H392.838L386.429 454.486H388.645ZM407.974 472.213C406.793 472.213 405.756 471.932 404.864 471.369C403.977 470.807 403.284 470.02 402.784 469.009C402.29 467.997 402.043 466.815 402.043 465.463C402.043 464.1 402.29 462.909 402.784 461.892C403.284 460.875 403.977 460.085 404.864 459.523C405.756 458.96 406.793 458.679 407.974 458.679C409.156 458.679 410.19 458.96 411.077 459.523C411.969 460.085 412.662 460.875 413.156 461.892C413.656 462.909 413.906 464.1 413.906 465.463C413.906 466.815 413.656 467.997 413.156 469.009C412.662 470.02 411.969 470.807 411.077 471.369C410.19 471.932 409.156 472.213 407.974 472.213ZM407.974 470.406C408.872 470.406 409.611 470.176 410.19 469.716C410.77 469.256 411.199 468.651 411.477 467.901C411.756 467.151 411.895 466.338 411.895 465.463C411.895 464.588 411.756 463.773 411.477 463.017C411.199 462.261 410.77 461.651 410.19 461.185C409.611 460.719 408.872 460.486 407.974 460.486C407.077 460.486 406.338 460.719 405.759 461.185C405.179 461.651 404.75 462.261 404.472 463.017C404.193 463.773 404.054 464.588 404.054 465.463C404.054 466.338 404.193 467.151 404.472 467.901C404.75 468.651 405.179 469.256 405.759 469.716C406.338 470.176 407.077 470.406 407.974 470.406ZM416.977 471.94V458.85H418.92V460.827H419.056C419.295 460.179 419.727 459.653 420.352 459.25C420.977 458.847 421.681 458.645 422.465 458.645C422.613 458.645 422.798 458.648 423.019 458.653C423.241 458.659 423.408 458.668 423.522 458.679V460.725C423.454 460.707 423.298 460.682 423.053 460.648C422.815 460.608 422.562 460.588 422.295 460.588C421.658 460.588 421.09 460.722 420.59 460.989C420.096 461.25 419.704 461.614 419.414 462.08C419.13 462.54 418.988 463.065 418.988 463.656V471.94H416.977ZM429.759 472.247C428.929 472.247 428.176 472.091 427.5 471.778C426.824 471.46 426.287 471.003 425.889 470.406C425.492 469.804 425.293 469.077 425.293 468.225C425.293 467.475 425.44 466.867 425.736 466.401C426.031 465.929 426.426 465.56 426.921 465.293C427.415 465.026 427.96 464.827 428.557 464.696C429.159 464.56 429.764 464.452 430.372 464.372C431.168 464.27 431.813 464.193 432.307 464.142C432.807 464.085 433.171 463.992 433.398 463.861C433.631 463.73 433.747 463.503 433.747 463.179V463.111C433.747 462.27 433.517 461.617 433.057 461.151C432.602 460.685 431.912 460.452 430.986 460.452C430.026 460.452 429.273 460.662 428.727 461.082C428.182 461.503 427.798 461.952 427.577 462.429L425.668 461.747C426.009 460.952 426.463 460.332 427.031 459.889C427.605 459.44 428.23 459.128 428.906 458.952C429.588 458.77 430.259 458.679 430.918 458.679C431.338 458.679 431.821 458.73 432.367 458.832C432.918 458.929 433.449 459.131 433.96 459.438C434.477 459.744 434.906 460.207 435.247 460.827C435.588 461.446 435.759 462.276 435.759 463.315V471.94H433.747V470.168H433.645C433.509 470.452 433.281 470.756 432.963 471.08C432.645 471.403 432.222 471.679 431.693 471.906C431.165 472.134 430.52 472.247 429.759 472.247ZM430.065 470.44C430.861 470.44 431.531 470.284 432.077 469.972C432.628 469.659 433.043 469.256 433.321 468.761C433.605 468.267 433.747 467.747 433.747 467.202V465.361C433.662 465.463 433.474 465.557 433.185 465.642C432.901 465.722 432.571 465.793 432.196 465.855C431.827 465.912 431.466 465.963 431.114 466.009C430.767 466.048 430.486 466.082 430.27 466.111C429.747 466.179 429.259 466.29 428.804 466.443C428.355 466.591 427.992 466.815 427.713 467.117C427.44 467.412 427.304 467.815 427.304 468.327C427.304 469.026 427.563 469.554 428.08 469.912C428.602 470.264 429.264 470.44 430.065 470.44ZM447.68 466.588V458.85H449.691V471.94H447.68V469.725H447.543C447.237 470.389 446.759 470.955 446.112 471.421C445.464 471.881 444.646 472.111 443.657 472.111C442.839 472.111 442.112 471.932 441.475 471.574C440.839 471.21 440.339 470.665 439.975 469.938C439.612 469.205 439.43 468.281 439.43 467.168V458.85H441.441V467.031C441.441 467.986 441.708 468.747 442.242 469.315C442.782 469.884 443.47 470.168 444.305 470.168C444.805 470.168 445.313 470.04 445.83 469.784C446.353 469.528 446.791 469.136 447.143 468.608C447.501 468.08 447.68 467.406 447.68 466.588ZM462.648 461.781L460.841 462.293C460.727 461.992 460.56 461.699 460.338 461.415C460.122 461.125 459.827 460.886 459.452 460.699C459.077 460.511 458.597 460.418 458.011 460.418C457.21 460.418 456.543 460.602 456.009 460.972C455.48 461.335 455.216 461.798 455.216 462.361C455.216 462.861 455.398 463.256 455.761 463.546C456.125 463.835 456.693 464.077 457.466 464.27L459.409 464.747C460.58 465.031 461.452 465.466 462.026 466.051C462.599 466.631 462.886 467.378 462.886 468.293C462.886 469.043 462.671 469.713 462.239 470.304C461.813 470.895 461.216 471.361 460.449 471.702C459.682 472.043 458.79 472.213 457.773 472.213C456.438 472.213 455.332 471.923 454.457 471.344C453.582 470.764 453.028 469.918 452.796 468.804L454.705 468.327C454.886 469.031 455.23 469.56 455.736 469.912C456.247 470.264 456.915 470.44 457.739 470.44C458.676 470.44 459.421 470.242 459.972 469.844C460.528 469.44 460.807 468.957 460.807 468.395C460.807 467.94 460.648 467.56 460.33 467.253C460.011 466.94 459.523 466.707 458.864 466.554L456.682 466.043C455.483 465.759 454.602 465.318 454.04 464.722C453.483 464.119 453.205 463.367 453.205 462.463C453.205 461.725 453.412 461.071 453.827 460.503C454.247 459.935 454.818 459.489 455.54 459.165C456.267 458.841 457.091 458.679 458.011 458.679C459.307 458.679 460.324 458.963 461.063 459.531C461.807 460.1 462.335 460.85 462.648 461.781ZM465.539 471.94V470.406L472.971 460.861V460.725H465.778V458.85H475.562V460.452L468.335 469.929V470.065H475.8V471.94H465.539ZM482.751 472.247C481.921 472.247 481.168 472.091 480.492 471.778C479.816 471.46 479.279 471.003 478.881 470.406C478.484 469.804 478.285 469.077 478.285 468.225C478.285 467.475 478.433 466.867 478.728 466.401C479.024 465.929 479.418 465.56 479.913 465.293C480.407 465.026 480.952 464.827 481.549 464.696C482.151 464.56 482.756 464.452 483.364 464.372C484.16 464.27 484.805 464.193 485.299 464.142C485.799 464.085 486.163 463.992 486.39 463.861C486.623 463.73 486.739 463.503 486.739 463.179V463.111C486.739 462.27 486.509 461.617 486.049 461.151C485.595 460.685 484.904 460.452 483.978 460.452C483.018 460.452 482.265 460.662 481.72 461.082C481.174 461.503 480.791 461.952 480.569 462.429L478.66 461.747C479.001 460.952 479.455 460.332 480.024 459.889C480.597 459.44 481.222 459.128 481.899 458.952C482.58 458.77 483.251 458.679 483.91 458.679C484.33 458.679 484.813 458.73 485.359 458.832C485.91 458.929 486.441 459.131 486.952 459.438C487.47 459.744 487.899 460.207 488.239 460.827C488.58 461.446 488.751 462.276 488.751 463.315V471.94H486.739V470.168H486.637C486.501 470.452 486.274 470.756 485.955 471.08C485.637 471.403 485.214 471.679 484.685 471.906C484.157 472.134 483.512 472.247 482.751 472.247ZM483.058 470.44C483.853 470.44 484.524 470.284 485.069 469.972C485.62 469.659 486.035 469.256 486.313 468.761C486.597 468.267 486.739 467.747 486.739 467.202V465.361C486.654 465.463 486.467 465.557 486.177 465.642C485.893 465.722 485.563 465.793 485.188 465.855C484.819 465.912 484.458 465.963 484.106 466.009C483.759 466.048 483.478 466.082 483.262 466.111C482.739 466.179 482.251 466.29 481.796 466.443C481.347 466.591 480.984 466.815 480.705 467.117C480.433 467.412 480.296 467.815 480.296 468.327C480.296 469.026 480.555 469.554 481.072 469.912C481.595 470.264 482.256 470.44 483.058 470.44ZM494.433 464.065V471.94H492.422V454.486H494.433V460.895H494.604C494.911 460.219 495.371 459.682 495.984 459.284C496.604 458.881 497.428 458.679 498.456 458.679C499.348 458.679 500.129 458.858 500.8 459.216C501.47 459.568 501.99 460.111 502.359 460.844C502.734 461.571 502.922 462.497 502.922 463.622V471.94H500.911V463.759C500.911 462.719 500.641 461.915 500.101 461.347C499.567 460.773 498.825 460.486 497.876 460.486C497.217 460.486 496.626 460.625 496.104 460.903C495.587 461.182 495.178 461.588 494.876 462.122C494.581 462.656 494.433 463.304 494.433 464.065ZM508.613 454.486V471.94H506.602V454.486H508.613ZM520.547 466.588V458.85H522.558V471.94H520.547V469.725H520.411C520.104 470.389 519.626 470.955 518.979 471.421C518.331 471.881 517.513 472.111 516.524 472.111C515.706 472.111 514.979 471.932 514.342 471.574C513.706 471.21 513.206 470.665 512.842 469.938C512.479 469.205 512.297 468.281 512.297 467.168V458.85H514.308V467.031C514.308 467.986 514.575 468.747 515.109 469.315C515.649 469.884 516.337 470.168 517.172 470.168C517.672 470.168 518.18 470.04 518.698 469.784C519.22 469.528 519.658 469.136 520.01 468.608C520.368 468.08 520.547 467.406 520.547 466.588ZM528.254 464.065V471.94H526.242V458.85H528.185V460.895H528.356C528.663 460.23 529.129 459.696 529.754 459.293C530.379 458.884 531.185 458.679 532.174 458.679C533.06 458.679 533.836 458.861 534.501 459.225C535.166 459.582 535.683 460.128 536.052 460.861C536.421 461.588 536.606 462.509 536.606 463.622V471.94H534.595V463.759C534.595 462.73 534.327 461.929 533.793 461.355C533.259 460.776 532.526 460.486 531.595 460.486C530.952 460.486 530.379 460.625 529.873 460.903C529.373 461.182 528.978 461.588 528.688 462.122C528.399 462.656 528.254 463.304 528.254 464.065ZM545.565 477.122C544.594 477.122 543.759 476.997 543.06 476.747C542.361 476.503 541.778 476.179 541.313 475.776C540.852 475.378 540.486 474.952 540.213 474.497L541.815 473.372C541.997 473.611 542.227 473.884 542.506 474.19C542.784 474.503 543.165 474.773 543.648 475C544.136 475.233 544.776 475.35 545.565 475.35C546.622 475.35 547.494 475.094 548.182 474.582C548.869 474.071 549.213 473.27 549.213 472.179V469.52H549.043C548.895 469.759 548.685 470.054 548.412 470.406C548.145 470.753 547.759 471.063 547.253 471.335C546.753 471.602 546.077 471.736 545.224 471.736C544.168 471.736 543.219 471.486 542.378 470.986C541.543 470.486 540.881 469.759 540.392 468.804C539.909 467.85 539.668 466.69 539.668 465.327C539.668 463.986 539.903 462.818 540.375 461.824C540.847 460.824 541.503 460.051 542.344 459.506C543.185 458.955 544.156 458.679 545.259 458.679C546.111 458.679 546.787 458.821 547.287 459.105C547.793 459.384 548.179 459.702 548.446 460.06C548.719 460.412 548.929 460.702 549.077 460.929H549.281V458.85H551.224V472.315C551.224 473.44 550.969 474.355 550.457 475.06C549.952 475.77 549.27 476.29 548.412 476.619C547.56 476.955 546.611 477.122 545.565 477.122ZM545.497 469.929C546.304 469.929 546.986 469.744 547.543 469.375C548.099 469.006 548.523 468.475 548.813 467.781C549.102 467.088 549.247 466.259 549.247 465.293C549.247 464.35 549.105 463.517 548.821 462.796C548.537 462.074 548.117 461.509 547.56 461.1C547.003 460.69 546.315 460.486 545.497 460.486C544.645 460.486 543.935 460.702 543.367 461.134C542.804 461.565 542.381 462.145 542.097 462.872C541.818 463.6 541.679 464.406 541.679 465.293C541.679 466.202 541.821 467.006 542.105 467.705C542.395 468.398 542.821 468.943 543.384 469.341C543.952 469.733 544.656 469.929 545.497 469.929Z" fill="black"/>
<path d="M629.553 454.486V471.94H627.439V456.702H627.337L623.076 459.531V457.384L627.439 454.486H629.553ZM640.709 454.486V471.94H638.596V456.702H638.493L634.232 459.531V457.384L638.596 454.486H640.709ZM646.198 472.077C645.778 472.077 645.417 471.926 645.116 471.625C644.814 471.324 644.664 470.963 644.664 470.543C644.664 470.122 644.814 469.761 645.116 469.46C645.417 469.159 645.778 469.009 646.198 469.009C646.618 469.009 646.979 469.159 647.28 469.46C647.582 469.761 647.732 470.122 647.732 470.543C647.732 470.821 647.661 471.077 647.519 471.31C647.383 471.543 647.198 471.73 646.965 471.872C646.738 472.009 646.482 472.077 646.198 472.077ZM656.549 472.179C655.424 472.179 654.421 471.986 653.54 471.6C652.665 471.213 651.969 470.676 651.452 469.989C650.941 469.296 650.662 468.492 650.617 467.577H652.765C652.81 468.139 653.003 468.625 653.344 469.034C653.685 469.438 654.131 469.75 654.682 469.972C655.234 470.193 655.844 470.304 656.515 470.304C657.265 470.304 657.93 470.173 658.509 469.912C659.089 469.651 659.543 469.287 659.873 468.821C660.202 468.355 660.367 467.815 660.367 467.202C660.367 466.56 660.208 465.994 659.89 465.506C659.572 465.011 659.106 464.625 658.492 464.347C657.878 464.068 657.128 463.929 656.242 463.929H654.844V462.054H656.242C656.935 462.054 657.543 461.929 658.066 461.679C658.594 461.429 659.006 461.077 659.302 460.622C659.603 460.168 659.753 459.634 659.753 459.02C659.753 458.429 659.623 457.915 659.361 457.477C659.1 457.04 658.731 456.699 658.253 456.455C657.782 456.21 657.225 456.088 656.583 456.088C655.981 456.088 655.412 456.199 654.878 456.421C654.35 456.636 653.918 456.952 653.583 457.367C653.248 457.776 653.066 458.27 653.037 458.85H650.992C651.026 457.935 651.302 457.134 651.819 456.446C652.336 455.753 653.012 455.213 653.847 454.827C654.688 454.44 655.611 454.247 656.617 454.247C657.697 454.247 658.623 454.466 659.395 454.903C660.168 455.335 660.762 455.906 661.177 456.617C661.591 457.327 661.799 458.094 661.799 458.918C661.799 459.901 661.54 460.739 661.023 461.432C660.512 462.125 659.816 462.605 658.935 462.872V463.009C660.037 463.19 660.898 463.659 661.518 464.415C662.137 465.165 662.447 466.094 662.447 467.202C662.447 468.151 662.188 469.003 661.671 469.759C661.16 470.509 660.461 471.1 659.574 471.531C658.688 471.963 657.68 472.179 656.549 472.179ZM665.932 471.94V470.406L671.694 464.1C672.37 463.361 672.927 462.719 673.364 462.173C673.802 461.622 674.126 461.105 674.336 460.622C674.552 460.134 674.66 459.622 674.66 459.088C674.66 458.475 674.512 457.943 674.216 457.494C673.927 457.046 673.529 456.699 673.023 456.455C672.518 456.21 671.949 456.088 671.319 456.088C670.648 456.088 670.063 456.227 669.563 456.506C669.069 456.778 668.685 457.162 668.412 457.656C668.145 458.151 668.012 458.73 668.012 459.395H666.001C666.001 458.372 666.236 457.475 666.708 456.702C667.18 455.929 667.822 455.327 668.634 454.895C669.452 454.463 670.37 454.247 671.387 454.247C672.41 454.247 673.316 454.463 674.106 454.895C674.895 455.327 675.515 455.909 675.964 456.642C676.412 457.375 676.637 458.19 676.637 459.088C676.637 459.73 676.52 460.358 676.287 460.972C676.06 461.58 675.662 462.259 675.094 463.009C674.532 463.753 673.751 464.662 672.751 465.736L668.83 469.929V470.065H676.944V471.94H665.932ZM686.157 472.179C684.873 472.179 683.779 471.83 682.876 471.131C681.972 470.426 681.282 469.406 680.805 468.071C680.327 466.73 680.089 465.111 680.089 463.213C680.089 461.327 680.327 459.716 680.805 458.381C681.287 457.04 681.981 456.017 682.884 455.313C683.793 454.602 684.884 454.247 686.157 454.247C687.43 454.247 688.518 454.602 689.421 455.313C690.33 456.017 691.023 457.04 691.501 458.381C691.984 459.716 692.225 461.327 692.225 463.213C692.225 465.111 691.986 466.73 691.509 468.071C691.032 469.406 690.341 470.426 689.438 471.131C688.535 471.83 687.441 472.179 686.157 472.179ZM686.157 470.304C687.43 470.304 688.418 469.69 689.123 468.463C689.827 467.236 690.18 465.486 690.18 463.213C690.18 461.702 690.018 460.415 689.694 459.352C689.376 458.29 688.915 457.48 688.313 456.923C687.716 456.367 686.998 456.088 686.157 456.088C684.895 456.088 683.91 456.71 683.199 457.955C682.489 459.193 682.134 460.946 682.134 463.213C682.134 464.725 682.293 466.009 682.611 467.065C682.93 468.122 683.387 468.926 683.984 469.477C684.586 470.028 685.31 470.304 686.157 470.304ZM702.52 471.94V454.486H713.055V456.361H704.634V462.259H712.509V464.134H704.634V470.065H713.191V471.94H702.52ZM728.319 454.486H730.432V466.043C730.432 467.236 730.151 468.301 729.589 469.239C729.032 470.171 728.245 470.906 727.228 471.446C726.211 471.98 725.018 472.247 723.648 472.247C722.279 472.247 721.086 471.98 720.069 471.446C719.052 470.906 718.262 470.171 717.699 469.239C717.143 468.301 716.864 467.236 716.864 466.043V454.486H718.978V465.872C718.978 466.725 719.165 467.483 719.54 468.148C719.915 468.807 720.449 469.327 721.143 469.707C721.841 470.082 722.677 470.27 723.648 470.27C724.62 470.27 725.455 470.082 726.154 469.707C726.853 469.327 727.387 468.807 727.756 468.148C728.131 467.483 728.319 466.725 728.319 465.872V454.486ZM734.653 471.94V454.486H740.551C741.915 454.486 743.034 454.719 743.909 455.185C744.784 455.645 745.432 456.278 745.852 457.085C746.273 457.892 746.483 458.81 746.483 459.838C746.483 460.867 746.273 461.778 745.852 462.574C745.432 463.369 744.787 463.994 743.917 464.449C743.048 464.898 741.937 465.122 740.585 465.122H735.812V463.213H740.517C741.449 463.213 742.199 463.077 742.767 462.804C743.341 462.531 743.756 462.145 744.011 461.645C744.273 461.139 744.403 460.537 744.403 459.838C744.403 459.139 744.273 458.528 744.011 458.006C743.75 457.483 743.332 457.08 742.758 456.796C742.184 456.506 741.426 456.361 740.483 456.361H736.767V471.94H734.653ZM742.869 464.1L747.165 471.94H744.71L740.483 464.1H742.869Z" fill="black"/>
<path d="M904.808 454.486V471.94H902.695V456.702H902.593L898.331 459.531V457.384L902.695 454.486H904.808ZM915.726 472.179C914.601 472.179 913.598 471.986 912.718 471.6C911.843 471.213 911.147 470.676 910.629 469.989C910.118 469.296 909.84 468.492 909.794 467.577H911.942C911.987 468.139 912.181 468.625 912.522 469.034C912.862 469.438 913.308 469.75 913.86 469.972C914.411 470.193 915.022 470.304 915.692 470.304C916.442 470.304 917.107 470.173 917.686 469.912C918.266 469.651 918.72 469.287 919.05 468.821C919.379 468.355 919.544 467.815 919.544 467.202C919.544 466.56 919.385 465.994 919.067 465.506C918.749 465.011 918.283 464.625 917.669 464.347C917.056 464.068 916.306 463.929 915.419 463.929H914.022V462.054H915.419C916.112 462.054 916.72 461.929 917.243 461.679C917.772 461.429 918.183 461.077 918.479 460.622C918.78 460.168 918.931 459.634 918.931 459.02C918.931 458.429 918.8 457.915 918.539 457.477C918.277 457.04 917.908 456.699 917.431 456.455C916.959 456.21 916.402 456.088 915.76 456.088C915.158 456.088 914.59 456.199 914.056 456.421C913.527 456.636 913.095 456.952 912.76 457.367C912.425 457.776 912.243 458.27 912.215 458.85H910.169C910.203 457.935 910.479 457.134 910.996 456.446C911.513 455.753 912.189 455.213 913.024 454.827C913.865 454.44 914.789 454.247 915.794 454.247C916.874 454.247 917.8 454.466 918.573 454.903C919.345 455.335 919.939 455.906 920.354 456.617C920.769 457.327 920.976 458.094 920.976 458.918C920.976 459.901 920.718 460.739 920.2 461.432C919.689 462.125 918.993 462.605 918.112 462.872V463.009C919.215 463.19 920.075 463.659 920.695 464.415C921.314 465.165 921.624 466.094 921.624 467.202C921.624 468.151 921.365 469.003 920.848 469.759C920.337 470.509 919.638 471.1 918.752 471.531C917.865 471.963 916.857 472.179 915.726 472.179ZM926.071 472.077C925.65 472.077 925.289 471.926 924.988 471.625C924.687 471.324 924.536 470.963 924.536 470.543C924.536 470.122 924.687 469.761 924.988 469.46C925.289 469.159 925.65 469.009 926.071 469.009C926.491 469.009 926.852 469.159 927.153 469.46C927.454 469.761 927.605 470.122 927.605 470.543C927.605 470.821 927.534 471.077 927.392 471.31C927.255 471.543 927.071 471.73 926.838 471.872C926.61 472.009 926.355 472.077 926.071 472.077ZM935.23 454.486V471.94H933.117V456.702H933.014L928.753 459.531V457.384L933.117 454.486H935.23ZM939.841 468.361V466.622L947.512 454.486H948.773V457.179H947.921L942.125 466.35V466.486H952.455V468.361H939.841ZM948.057 471.94V467.832V467.023V454.486H950.068V471.94H948.057ZM961.546 472.179C960.421 472.179 959.419 471.986 958.538 471.6C957.663 471.213 956.967 470.676 956.45 469.989C955.938 469.296 955.66 468.492 955.615 467.577H957.762C957.808 468.139 958.001 468.625 958.342 469.034C958.683 469.438 959.129 469.75 959.68 469.972C960.231 470.193 960.842 470.304 961.512 470.304C962.262 470.304 962.927 470.173 963.507 469.912C964.086 469.651 964.541 469.287 964.87 468.821C965.2 468.355 965.365 467.815 965.365 467.202C965.365 466.56 965.205 465.994 964.887 465.506C964.569 465.011 964.103 464.625 963.49 464.347C962.876 464.068 962.126 463.929 961.24 463.929H959.842V462.054H961.24C961.933 462.054 962.541 461.929 963.063 461.679C963.592 461.429 964.004 461.077 964.299 460.622C964.6 460.168 964.751 459.634 964.751 459.02C964.751 458.429 964.62 457.915 964.359 457.477C964.098 457.04 963.728 456.699 963.251 456.455C962.779 456.21 962.223 456.088 961.58 456.088C960.978 456.088 960.41 456.199 959.876 456.421C959.348 456.636 958.916 456.952 958.58 457.367C958.245 457.776 958.063 458.27 958.035 458.85H955.99C956.024 457.935 956.299 457.134 956.816 456.446C957.333 455.753 958.009 455.213 958.845 454.827C959.686 454.44 960.609 454.247 961.615 454.247C962.694 454.247 963.62 454.466 964.393 454.903C965.166 455.335 965.759 455.906 966.174 456.617C966.589 457.327 966.796 458.094 966.796 458.918C966.796 459.901 966.538 460.739 966.021 461.432C965.509 462.125 964.813 462.605 963.933 462.872V463.009C965.035 463.19 965.896 463.659 966.515 464.415C967.134 465.165 967.444 466.094 967.444 467.202C967.444 468.151 967.186 469.003 966.669 469.759C966.157 470.509 965.458 471.1 964.572 471.531C963.686 471.963 962.677 472.179 961.546 472.179ZM977.987 471.94V454.486H988.521V456.361H980.1V462.259H987.975V464.134H980.1V470.065H988.657V471.94H977.987ZM1003.79 454.486H1005.9V466.043C1005.9 467.236 1005.62 468.301 1005.05 469.239C1004.5 470.171 1003.71 470.906 1002.69 471.446C1001.68 471.98 1000.48 472.247 999.115 472.247C997.745 472.247 996.552 471.98 995.535 471.446C994.518 470.906 993.728 470.171 993.166 469.239C992.609 468.301 992.33 467.236 992.33 466.043V454.486H994.444V465.872C994.444 466.725 994.632 467.483 995.007 468.148C995.382 468.807 995.916 469.327 996.609 469.707C997.308 470.082 998.143 470.27 999.115 470.27C1000.09 470.27 1000.92 470.082 1001.62 469.707C1002.32 469.327 1002.85 468.807 1003.22 468.148C1003.6 467.483 1003.79 466.725 1003.79 465.872V454.486ZM1010.12 471.94V454.486H1016.02C1017.38 454.486 1018.5 454.719 1019.38 455.185C1020.25 455.645 1020.9 456.278 1021.32 457.085C1021.74 457.892 1021.95 458.81 1021.95 459.838C1021.95 460.867 1021.74 461.778 1021.32 462.574C1020.9 463.369 1020.25 463.994 1019.38 464.449C1018.51 464.898 1017.4 465.122 1016.05 465.122H1011.28V463.213H1015.98C1016.91 463.213 1017.66 463.077 1018.23 462.804C1018.81 462.531 1019.22 462.145 1019.48 461.645C1019.74 461.139 1019.87 460.537 1019.87 459.838C1019.87 459.139 1019.74 458.528 1019.48 458.006C1019.22 457.483 1018.8 457.08 1018.22 456.796C1017.65 456.506 1016.89 456.361 1015.95 456.361H1012.23V471.94H1010.12ZM1018.34 464.1L1022.63 471.94H1020.18L1015.95 464.1H1018.34Z" fill="black"/>
<path d="M796.311 464.239H841.002M841.002 464.239L830.337 458.082M841.002 464.239L830.337 470.397" stroke="black" stroke-width="5" stroke-linecap="round" stroke-linejoin="round"/>
<rect x="1129.46" y="429.134" width="66.0207" height="66.0207" rx="10" fill="#1C863C"/>
<path d="M1145.31 463.929L1154.1 472.609C1155.27 473.762 1157.15 473.762 1158.32 472.609L1180.96 450.261" stroke="#D9D9D9" stroke-width="10" stroke-linecap="round"/>
<path d="M707.667 301.417V287.583H721.5V239.167C721.5 229.599 724.382 221.097 730.146 213.661C735.91 206.226 743.403 201.355 752.625 199.05V194.208C752.625 191.326 753.634 188.877 755.651 186.859C757.668 184.842 760.118 183.833 763 183.833C765.882 183.833 768.332 184.842 770.349 186.859C772.366 188.877 773.375 191.326 773.375 194.208V199.05C782.597 201.355 790.09 206.226 795.854 213.661C801.618 221.097 804.5 229.599 804.5 239.167V287.583H818.333V301.417H707.667ZM763 322.167C759.196 322.167 755.939 320.812 753.23 318.103C750.521 315.394 749.167 312.137 749.167 308.333H776.833C776.833 312.137 775.479 315.394 772.77 318.103C770.061 320.812 766.804 322.167 763 322.167ZM735.333 287.583H790.667V239.167C790.667 231.558 787.958 225.045 782.54 219.627C777.122 214.209 770.608 211.5 763 211.5C755.392 211.5 748.878 214.209 743.46 219.627C738.042 225.045 735.333 231.558 735.333 239.167V287.583Z" fill="#247BA0"/>
<defs>
<clipPath id="clip0_0_1">
<rect width="193.033" height="32.5079" fill="white" transform="translate(461.267 16.2539)"/>
</clipPath>
</defs>
</svg>
