<svg width="386" height="355" viewBox="0 0 386 355" fill="none" xmlns="http://www.w3.org/2000/svg">
<rect x="1.67743" y="57.7804" width="230.436" height="297.312" rx="32.5" transform="rotate(-7.25555 1.67743 57.7804)" fill="#F7F7F7" stroke="#B4B4B4" stroke-width="3"/>
<rect x="27.1851" y="78.8013" width="64.3961" height="7.30687" rx="3.65343" transform="rotate(-7.25555 27.1851 78.8013)" fill="#A6A6A6"/>
<rect x="28.5693" y="89.6738" width="42.4429" height="7.30687" rx="3.65343" transform="rotate(-7.25555 28.5693 89.6738)" fill="#D9D9D9"/>
<rect x="29.9536" y="100.546" width="55.6149" height="7.30687" rx="3.65343" transform="rotate(-7.25555 29.9536 100.546)" fill="#A6A6A6"/>
<rect x="148.315" y="103.155" width="64.3961" height="7.30686" rx="3.65343" transform="rotate(-7.25555 148.315 103.155)" fill="#A6A6A6"/>
<rect x="161.314" y="112.549" width="52.6878" height="7.30687" rx="3.65343" transform="rotate(-7.25555 161.314 112.549)" fill="#A6A6A6"/>
<rect x="177.807" y="143.596" width="40.2476" height="7.30687" rx="3.65343" transform="rotate(-7.25555 177.807 143.596)" fill="#A6A6A6"/>
<rect x="156.89" y="124.161" width="58.5419" height="7.30687" rx="3.65343" transform="rotate(-7.25555 156.89 124.161)" fill="#D9D9D9"/>
<rect x="48.6251" y="218.233" width="35.1252" height="5.84549" rx="2.92274" transform="rotate(-7.25555 48.6251 218.233)" fill="#D9D9D9" fill-opacity="0.53"/>
<rect x="92.9059" y="212.595" width="35.1252" height="5.84549" rx="2.92274" transform="rotate(-7.25555 92.9059 212.595)" fill="#D9D9D9" fill-opacity="0.53"/>
<rect x="137.187" y="206.957" width="35.1252" height="5.84549" rx="2.92274" transform="rotate(-7.25555 137.187 206.957)" fill="#D9D9D9" fill-opacity="0.53"/>
<rect x="185.097" y="200.858" width="35.1252" height="5.84549" rx="2.92274" transform="rotate(-7.25555 185.097 200.858)" fill="#D9D9D9"/>
<rect x="49.5479" y="225.481" width="35.1252" height="5.84549" rx="2.92274" transform="rotate(-7.25555 49.5479 225.481)" fill="#D9D9D9" fill-opacity="0.53"/>
<rect x="93.8287" y="219.843" width="35.1252" height="5.84549" rx="2.92274" transform="rotate(-7.25555 93.8287 219.843)" fill="#D9D9D9" fill-opacity="0.53"/>
<rect x="138.11" y="214.206" width="35.1252" height="5.84549" rx="2.92274" transform="rotate(-7.25555 138.11 214.206)" fill="#D9D9D9" fill-opacity="0.53"/>
<rect x="186.02" y="208.106" width="35.1252" height="5.84549" rx="2.92274" transform="rotate(-7.25555 186.02 208.106)" fill="#D9D9D9" fill-opacity="0.53"/>
<rect x="51.3936" y="239.978" width="35.1252" height="5.84549" rx="2.92274" transform="rotate(-7.25555 51.3936 239.978)" fill="#D9D9D9" fill-opacity="0.53"/>
<rect x="95.6744" y="234.34" width="35.1252" height="5.84549" rx="2.92274" transform="rotate(-7.25555 95.6744 234.34)" fill="#D9D9D9" fill-opacity="0.53"/>
<rect x="139.955" y="228.702" width="35.1252" height="5.84549" rx="2.92274" transform="rotate(-7.25555 139.955 228.702)" fill="#D9D9D9" fill-opacity="0.53"/>
<rect x="187.866" y="222.603" width="35.1252" height="5.84549" rx="2.92274" transform="rotate(-7.25555 187.866 222.603)" fill="#D9D9D9" fill-opacity="0.53"/>
<rect x="52.3164" y="247.226" width="35.1252" height="5.8455" rx="2.92275" transform="rotate(-7.25555 52.3164 247.226)" fill="#D9D9D9" fill-opacity="0.53"/>
<rect x="96.5972" y="241.588" width="35.1252" height="5.8455" rx="2.92275" transform="rotate(-7.25555 96.5972 241.588)" fill="#D9D9D9" fill-opacity="0.53"/>
<rect x="140.878" y="235.951" width="35.1252" height="5.8455" rx="2.92275" transform="rotate(-7.25555 140.878 235.951)" fill="#D9D9D9" fill-opacity="0.53"/>
<rect x="188.788" y="229.851" width="35.1252" height="5.8455" rx="2.92275" transform="rotate(-7.25555 188.788 229.851)" fill="#D9D9D9" fill-opacity="0.53"/>
<rect x="53.2392" y="254.474" width="35.1252" height="5.84549" rx="2.92274" transform="rotate(-7.25555 53.2392 254.474)" fill="#8C8C8C" fill-opacity="0.5"/>
<rect x="97.52" y="248.837" width="35.1252" height="5.84549" rx="2.92274" transform="rotate(-7.25555 97.52 248.837)" fill="#D9D9D9" fill-opacity="0.53"/>
<rect x="141.801" y="243.199" width="35.1252" height="5.84549" rx="2.92274" transform="rotate(-7.25555 141.801 243.199)" fill="#D9D9D9" fill-opacity="0.53"/>
<rect x="189.711" y="237.099" width="35.1252" height="5.84549" rx="2.92274" transform="rotate(-7.25555 189.711 237.099)" fill="#D9D9D9" fill-opacity="0.53"/>
<rect x="54.162" y="261.723" width="35.1252" height="5.8455" rx="2.92275" transform="rotate(-7.25555 54.162 261.723)" fill="#D9D9D9" fill-opacity="0.53"/>
<rect x="98.4428" y="256.085" width="35.1252" height="5.8455" rx="2.92275" transform="rotate(-7.25555 98.4428 256.085)" fill="#D9D9D9" fill-opacity="0.53"/>
<rect x="142.724" y="250.448" width="35.1252" height="5.8455" rx="2.92275" transform="rotate(-7.25555 142.724 250.448)" fill="#8C8C8C" fill-opacity="0.73"/>
<rect x="190.634" y="244.348" width="35.1252" height="5.8455" rx="2.92275" transform="rotate(-7.25555 190.634 244.348)" fill="#D9D9D9" fill-opacity="0.53"/>
<rect x="55.0848" y="268.971" width="35.1252" height="5.84549" rx="2.92274" transform="rotate(-7.25555 55.0848 268.971)" fill="#D9D9D9" fill-opacity="0.53"/>
<rect x="99.3657" y="263.333" width="35.1252" height="5.84549" rx="2.92274" transform="rotate(-7.25555 99.3657 263.333)" fill="#D9D9D9" fill-opacity="0.53"/>
<rect x="143.646" y="257.696" width="35.1252" height="5.84549" rx="2.92274" transform="rotate(-7.25555 143.646 257.696)" fill="#D9D9D9" fill-opacity="0.53"/>
<rect x="191.557" y="251.596" width="35.1252" height="5.84549" rx="2.92274" transform="rotate(-7.25555 191.557 251.596)" fill="#D9D9D9" fill-opacity="0.53"/>
<rect x="56.0077" y="276.219" width="35.1252" height="5.84549" rx="2.92274" transform="rotate(-7.25555 56.0077 276.219)" fill="#D9D9D9" fill-opacity="0.53"/>
<rect x="100.288" y="270.582" width="35.1252" height="5.84549" rx="2.92274" transform="rotate(-7.25555 100.288 270.582)" fill="#D9D9D9" fill-opacity="0.53"/>
<rect x="144.569" y="264.944" width="35.1252" height="5.84549" rx="2.92274" transform="rotate(-7.25555 144.569 264.944)" fill="#D9D9D9" fill-opacity="0.53"/>
<rect x="192.48" y="258.844" width="35.1252" height="5.84549" rx="2.92274" transform="rotate(-7.25555 192.48 258.844)" fill="#A6A6A6"/>
<rect x="50.4708" y="232.729" width="35.1252" height="5.84549" rx="2.92274" transform="rotate(-7.25555 50.4708 232.729)" fill="#D9D9D9" fill-opacity="0.53"/>
<rect x="94.7515" y="227.092" width="35.1252" height="5.84549" rx="2.92274" transform="rotate(-7.25555 94.7515 227.092)" fill="#8C8C8C" fill-opacity="0.53"/>
<rect x="139.032" y="221.454" width="35.1252" height="5.84549" rx="2.92274" transform="rotate(-7.25555 139.032 221.454)" fill="#D9D9D9" fill-opacity="0.53"/>
<rect x="186.943" y="215.354" width="35.1252" height="5.84549" rx="2.92274" transform="rotate(-7.25555 186.943 215.354)" fill="#D9D9D9" fill-opacity="0.53"/>
<rect x="40.8428" y="186.077" width="44.6382" height="7.30687" rx="3.65343" transform="rotate(-7.25555 40.8428 186.077)" fill="#D9D9D9"/>
<rect x="42.2271" y="196.949" width="145.623" height="7.30687" rx="3.65343" transform="rotate(-7.25555 42.2271 196.949)" fill="#D9D9D9"/>
<path d="M70.6346 315.783C70.6346 315.783 108.726 300.438 115.26 301.263C126.881 302.73 79.7848 317.284 92.3782 318.539C104.972 319.794 115.509 311.912 105.906 320.5C101.305 324.615 99.8804 325.318 99.8804 325.318" stroke="#A6A6A6" stroke-width="3" stroke-linecap="round" stroke-linejoin="round"/>
<rect x="45.5601" y="215.211" width="39.7111" height="71.7994" rx="4" transform="rotate(-7.25555 45.5601 215.211)" stroke="#D9D9D9" stroke-width="2"/>
<rect x="89.8409" y="209.574" width="39.7111" height="71.7994" rx="4" transform="rotate(-7.25555 89.8409 209.574)" stroke="#D9D9D9" stroke-width="2"/>
<rect x="134.122" y="203.936" width="39.7111" height="71.7994" rx="4" transform="rotate(-7.25555 134.122 203.936)" stroke="#D9D9D9" stroke-width="2"/>
<rect x="182.032" y="197.836" width="39.7111" height="71.7994" rx="4" transform="rotate(-7.25555 182.032 197.836)" stroke="#D9D9D9" stroke-width="2"/>
<rect x="67.5" y="9.5" width="217" height="292" rx="25.5" fill="#F7F7F7" stroke="#B4B4B4" stroke-width="3"/>
<rect x="152.207" y="26.6617" width="48.2759" height="7.17762" rx="3.58881" fill="#A6A6A6"/>
<rect x="146" y="53.9368" width="60.6897" height="7.17762" rx="3.58881" fill="#A6A6A6"/>
<rect x="154.276" y="64.7031" width="44.1379" height="7.17762" rx="3.58881" fill="#D9D9D9"/>
<rect x="150.138" y="75.4696" width="52.4138" height="7.17762" rx="3.58881" fill="#A6A6A6"/>
<rect x="146" y="95.5669" width="60.6897" height="7.17762" rx="3.58881" fill="#A6A6A6"/>
<rect x="154.276" y="106.333" width="44.1379" height="7.17762" rx="3.58881" fill="#A6A6A6"/>
<rect x="148.069" y="117.1" width="56.5517" height="7.17762" rx="3.58881" fill="#D9D9D9"/>
<rect x="88.7586" y="155.141" width="42.069" height="7.17762" rx="3.58881" fill="#D9D9D9"/>
<rect x="134.276" y="155.141" width="33.7931" height="7.17762" rx="3.58881" fill="#A6A6A6"/>
<rect x="171.517" y="155.141" width="84.8276" height="7.17762" rx="3.58881" fill="#D9D9D9"/>
<rect x="88.7586" y="176.674" width="46.2069" height="7.17762" rx="3.58881" fill="#A6A6A6"/>
<rect x="138.414" y="176.674" width="115.172" height="7.17762" rx="3.58881" fill="#D9D9D9"/>
<rect x="89.4483" y="187.44" width="122.069" height="7.17762" rx="3.58881" fill="#D9D9D9"/>
<rect x="90.1379" y="208.255" width="166.897" height="7.17762" rx="3.58881" fill="#D9D9D9"/>
<rect x="90.1379" y="219.022" width="45.5172" height="7.17762" rx="3.58881" fill="#D9D9D9"/>
<rect x="139.103" y="219.022" width="45.5172" height="7.17762" rx="3.58881" fill="#A6A6A6"/>
<rect x="188.069" y="219.022" width="45.5172" height="7.17762" rx="3.58881" fill="#A6A6A6"/>
<rect x="90.1379" y="229.788" width="171.034" height="7.17762" rx="3.58881" fill="#D9D9D9"/>
<rect x="89.4483" y="240.555" width="142.069" height="7.17762" rx="3.58881" fill="#D9D9D9"/>
<rect x="88.7586" y="165.907" width="174.483" height="7.17762" rx="3.58881" fill="#D9D9D9"/>
<path d="M101.172 269.438C101.172 269.438 138.611 259.211 144.621 260.825C155.31 263.696 109.548 272.036 121.172 274.821C132.797 277.606 143.586 271.233 133.586 278.41C128.795 281.849 127.379 282.357 127.379 282.357M203.931 269.438C203.931 269.438 241.369 259.211 247.379 260.825C258.069 263.696 212.307 272.036 223.931 274.821C235.555 277.606 246.345 271.233 236.345 278.41C231.553 281.849 230.138 282.357 230.138 282.357" stroke="#A6A6A6" stroke-width="3" stroke-linecap="round" stroke-linejoin="round"/>
<rect x="147.354" y="1.71809" width="239.421" height="307.931" rx="25.5" transform="rotate(9.08767 147.354 1.71809)" fill="#F7F7F7" stroke="#B4B4B4" stroke-width="3"/>
<rect x="166.691" y="30.1069" width="66.8748" height="7.56524" rx="3.78262" transform="rotate(9.08767 166.691 30.1069)" fill="#A6A6A6"/>
<rect x="164.899" y="41.3124" width="44.0766" height="7.56524" rx="3.78262" transform="rotate(9.08767 164.899 41.3124)" fill="#D9D9D9"/>
<rect x="163.107" y="52.5178" width="57.7555" height="7.56524" rx="3.78262" transform="rotate(9.08767 163.107 52.5178)" fill="#A6A6A6"/>
<rect x="280.303" y="89.6511" width="66.8748" height="7.56524" rx="3.78262" transform="rotate(9.08767 280.303 89.6511)" fill="#A6A6A6"/>
<rect x="290.517" y="102.777" width="54.7157" height="7.56524" rx="3.78262" transform="rotate(9.08767 290.517 102.777)" fill="#A6A6A6"/>
<rect x="297.897" y="138.434" width="41.7967" height="7.56525" rx="3.78262" transform="rotate(9.08767 297.897 138.434)" fill="#A6A6A6"/>
<rect x="225.495" y="162.861" width="41.7967" height="7.56523" rx="3.78262" transform="rotate(9.08767 225.495 162.861)" fill="#A6A6A6"/>
<rect x="143.869" y="172.789" width="41.7967" height="7.56523" rx="3.78262" transform="rotate(9.08767 143.869 172.789)" fill="#A6A6A6"/>
<rect x="135.266" y="226.575" width="41.7967" height="7.56525" rx="3.78262" transform="rotate(9.08767 135.266 226.575)" fill="#A6A6A6"/>
<rect x="221.853" y="228.933" width="41.7967" height="7.56525" rx="3.78262" transform="rotate(9.08767 221.853 228.933)" fill="#A6A6A6"/>
<rect x="282.722" y="113.022" width="60.7953" height="7.56524" rx="3.78262" transform="rotate(9.08767 282.722 113.022)" fill="#D9D9D9"/>
<rect x="153.82" y="115.388" width="69.1546" height="7.56525" rx="3.78262" transform="rotate(9.08767 153.82 115.388)" fill="#D9D9D9"/>
<rect x="147.453" y="150.378" width="75.2341" height="7.56523" rx="3.78262" transform="rotate(9.08767 147.453 150.378)" fill="#D9D9D9"/>
<rect x="138.85" y="204.164" width="148.948" height="7.56525" rx="3.78262" transform="rotate(9.08767 138.85 204.164)" fill="#D9D9D9"/>
<rect x="188.893" y="179.991" width="152.748" height="7.56523" rx="3.78262" transform="rotate(9.08767 188.893 179.991)" fill="#D9D9D9"/>
<rect x="180.29" y="233.777" width="152.748" height="7.56525" rx="3.78262" transform="rotate(9.08767 180.29 233.777)" fill="#D9D9D9"/>
<rect x="142.076" y="183.995" width="152.748" height="7.56525" rx="3.78262" transform="rotate(9.08767 142.076 183.995)" fill="#D9D9D9"/>
<rect x="133.473" y="237.781" width="152.748" height="7.56523" rx="3.78262" transform="rotate(9.08767 133.473 237.781)" fill="#D9D9D9"/>
<rect x="145.661" y="161.584" width="180.106" height="7.56523" rx="3.78262" transform="rotate(9.08767 145.661 161.584)" fill="#D9D9D9"/>
<rect x="137.058" y="215.37" width="82.8335" height="7.56525" rx="3.78262" transform="rotate(9.08767 137.058 215.37)" fill="#D9D9D9"/>
<rect x="269.129" y="236.495" width="56.2356" height="7.56525" rx="3.78262" transform="rotate(9.08767 269.129 236.495)" fill="#D9D9D9"/>
<rect x="270.519" y="170.063" width="62.3151" height="7.56523" rx="3.78262" transform="rotate(9.08767 270.519 170.063)" fill="#D9D9D9"/>
<path d="M127.265 281.408C127.265 281.408 169.703 277.28 175.974 280.006C187.127 284.854 135.946 285.569 148.13 290.491C160.314 295.413 173.115 290.658 161.04 296.387C155.254 299.133 153.629 299.415 153.629 299.415" stroke="#A6A6A6" stroke-width="3" stroke-linecap="round" stroke-linejoin="round"/>
<path d="M262.337 303.013C262.337 303.013 304.775 298.885 311.046 301.611C322.199 306.46 271.018 307.175 283.202 312.097C295.387 317.018 308.188 312.263 296.112 317.993C290.326 320.738 288.701 321.021 288.701 321.021" stroke="#A6A6A6" stroke-width="3" stroke-linecap="round" stroke-linejoin="round"/>
<rect x="60.5896" y="40.2663" width="238" height="307" rx="25.5" transform="rotate(-3.5355 60.5896 40.2663)" fill="#F7F7F7" stroke="#B4B4B4" stroke-width="3"/>
<rect x="154.465" y="52.6116" width="52.884" height="7.54258" rx="3.77129" transform="rotate(-3.5355 154.465 52.6116)" fill="#A6A6A6"/>
<rect x="149.446" y="81.6381" width="66.4828" height="7.54258" rx="3.77129" transform="rotate(-3.5355 149.446 81.6381)" fill="#A6A6A6"/>
<rect x="159.193" y="92.3713" width="48.3511" height="7.54258" rx="3.77129" transform="rotate(-3.5355 159.193 92.3713)" fill="#D9D9D9"/>
<rect x="155.366" y="103.943" width="57.4169" height="7.54258" rx="3.77129" transform="rotate(-3.5355 155.366 103.943)" fill="#A6A6A6"/>
<rect x="152.144" y="125.302" width="66.4828" height="7.54258" rx="3.77129" transform="rotate(-3.5355 152.144 125.302)" fill="#A6A6A6"/>
<rect x="161.89" y="136.035" width="48.3511" height="7.54258" rx="3.77129" transform="rotate(-3.5355 161.89 136.035)" fill="#A6A6A6"/>
<rect x="155.802" y="147.747" width="61.9498" height="7.54258" rx="3.77129" transform="rotate(-3.5355 155.802 147.747)" fill="#D9D9D9"/>
<rect x="93.4187" y="191.653" width="46.0846" height="7.54259" rx="3.77129" transform="rotate(-3.5355 93.4187 191.653)" fill="#D9D9D9"/>
<rect x="143.186" y="188.578" width="37.0188" height="7.54259" rx="3.77129" transform="rotate(-3.5355 143.186 188.578)" fill="#A6A6A6"/>
<rect x="183.904" y="186.062" width="92.9248" height="7.54259" rx="3.77129" transform="rotate(-3.5355 183.904 186.062)" fill="#D9D9D9"/>
<rect x="94.8141" y="214.238" width="50.6175" height="7.54257" rx="3.77129" transform="rotate(-3.5355 94.8141 214.238)" fill="#A6A6A6"/>
<rect x="149.106" y="210.883" width="126.166" height="7.54257" rx="3.77129" transform="rotate(-3.5355 149.106 210.883)" fill="#D9D9D9"/>
<rect x="96.2658" y="225.483" width="133.721" height="7.54259" rx="3.77129" transform="rotate(-3.5355 96.2658 225.483)" fill="#D9D9D9"/>
<rect x="98.3688" y="247.269" width="182.828" height="7.54259" rx="3.77129" transform="rotate(-3.5355 98.3688 247.269)" fill="#D9D9D9"/>
<rect x="99.0665" y="258.561" width="49.8621" height="7.54259" rx="3.77129" transform="rotate(-3.5355 99.0665 258.561)" fill="#D9D9D9"/>
<rect x="152.604" y="255.253" width="49.8621" height="7.54259" rx="3.77129" transform="rotate(-3.5355 152.604 255.253)" fill="#A6A6A6"/>
<rect x="206.141" y="251.945" width="49.8621" height="7.54259" rx="3.77129" transform="rotate(-3.5355 206.141 251.945)" fill="#A6A6A6"/>
<rect x="99.7642" y="269.853" width="187.361" height="7.54257" rx="3.77129" transform="rotate(-3.5355 99.7642 269.853)" fill="#D9D9D9"/>
<rect x="99.7078" y="281.192" width="155.63" height="7.54259" rx="3.77129" transform="rotate(-3.5355 99.7078 281.192)" fill="#D9D9D9"/>
<rect x="94.1164" y="202.945" width="191.138" height="7.54259" rx="3.77129" transform="rotate(-3.5355 94.1164 202.945)" fill="#D9D9D9"/>
<path d="M114.398 310.694C114.398 310.694 154.669 297.438 161.345 298.725C173.219 301.015 123.725 312.853 136.615 314.989C149.505 317.125 160.889 309.711 150.42 317.915C145.404 321.846 143.889 322.474 143.889 322.474M226.751 303.752C226.751 303.752 267.023 290.497 273.698 291.784C285.572 294.073 236.078 305.911 248.968 308.047C261.858 310.183 273.242 302.77 262.773 310.973C257.757 314.904 256.243 315.533 256.243 315.533" stroke="#A6A6A6" stroke-width="3" stroke-linecap="round" stroke-linejoin="round"/>
</svg>
