<svg xmlns:xlink="http://www.w3.org/1999/xlink" xmlns:svg="http://www.w3.org/2000/svg" xmlns="http://www.w3.org/2000/svg" version="1.1" id="svg7237" width="1024" height="450" viewBox="-1.33544997 -1.33544997 107.39589994 47.18589894">
  <defs id="defs7239"/>
  <path id="path7191" style="fill:#f7a901;fill-opacity:1;fill-rule:nonzero;stroke:none" d="m 10.78876,19.61249 8.82625,0 0,-8.825 -8.82625,0 0,8.825 z"/>
  <path id="path7195" style="fill:#8e9ba4;fill-opacity:1;fill-rule:nonzero;stroke:none" d="M 104.725,30.4 93.40375,0.0025 l -9.3025,0 L 72.8,30.4 l 9.6125,0 1.48375,-4.30625 9.67125,0 1.48625,4.30625 9.67125,0 z m -13.05375,-10.8075 -5.96,0 3.0925,-10.59125 2.8675,10.59125 z m -18.57875,18.87375 -1.19,0 0,5.89625 1.19,0 0,-3.52875 c 0,-1.0975 0.65125,-1.3375 1.19125,-1.3375 0.2,0 0.40875,0.0437 0.49625,0.0662 l 0,-1.205 c -0.0763,-0.0225 -0.15375,-0.0437 -0.28625,-0.0437 C 73.82,38.31375 73.38,38.73 73.115,39.3875 l -0.0225,0 0,-0.92125 z M 62.0475,30.4 l 9.46125,0 0,-30.3975 -9.46125,0 0,30.3975 z m 0.87,8.06625 -1.235,0 1.345,5.89625 1.38875,0 0.85,-4.58125 0.0213,0 0.92875,4.58125 1.3325,0 1.35625,-5.89625 -1.19,0 -0.81625,4.64625 -0.0225,0 -0.8825,-4.64625 -1.34375,0 -0.88375,4.64625 -0.0213,0 -0.8275,-4.64625 z m -3.0075,5.89625 1.19,0 0,-4.45 c 0,-1.19375 -0.5725,-1.59875 -1.47625,-1.59875 -0.6625,0 -1.225,0.3175 -1.5225,0.8425 l -0.0325,0 0,-0.69 -1.125,0 0,5.89625 1.19125,0 0,-3.95625 c 0,-0.76875 0.4625,-1.15125 0.9475,-1.15125 0.59625,0 0.8275,0.2975 0.8275,1.06375 l 0,4.04375 z m -26.13125,-13.96375 25.455,0 0,-7.85125 -15.40625,0 14.7775,-15.3525 0,-7.1925 -24.07875,0 0,7.8525 13.7675,0 -14.515,15.16625 0,7.3775 z m -1.42625,13.96375 1.19125,0 0,-4.4825 c 0,-1.13875 -0.60625,-1.56625 -1.44375,-1.56625 -0.7175,0 -1.15875,0.32875 -1.5,0.8975 -0.17625,-0.4925 -0.53,-0.8975 -1.37875,-0.8975 -0.5625,0 -1.12375,0.3175 -1.4225,0.8425 l -0.0337,0 0,-0.69 -1.12375,0 0,5.89625 1.19125,0 0,-3.95625 c 0,-0.76875 0.4625,-1.15125 0.9375,-1.15125 0.495,0 0.7275,0.2975 0.7275,1.06375 l 0,4.04375 1.19,0 0,-3.95625 c 0,-0.76875 0.46375,-1.15125 0.94875,-1.15125 0.48625,0 0.71625,0.2975 0.71625,1.06375 l 0,4.04375 z m -10.77625,-24.75 8.82625,0 0,-8.825 -8.82625,0 0,8.825 z m 1.47375,-7.35 5.87875,0 0,5.8775 -5.87875,0 0,-5.8775 z m -1.47375,-3.4375 8.82625,0 0,-8.825 -8.82625,0 0,8.825 z M 23.05,1.47375 l 5.87875,0 0,5.87625 -5.87875,0 0,-5.87625 z m -1.86,36.84 c -0.5625,0 -1.125,0.3175 -1.4225,0.8425 l -0.0325,0 0,-0.69 -1.12625,0 0,5.89625 1.19125,0 0,-3.95625 c 0,-0.76875 0.46375,-1.15125 0.9375,-1.15125 0.49625,0 0.72875,0.2975 0.72875,1.06375 l 0,4.04375 1.19,0 0,-3.95625 c 0,-0.76875 0.46375,-1.15125 0.94875,-1.15125 0.485,0 0.71625,0.2975 0.71625,1.06375 l 0,4.04375 1.19125,0 0,-4.4825 c 0,-1.13875 -0.60625,-1.56625 -1.44375,-1.56625 -0.7175,0 -1.15875,0.32875 -1.5,0.8975 -0.17625,-0.4925 -0.53,-0.8975 -1.37875,-0.8975 z m -10.40125,-7.915 8.82625,0 0,-8.82625 -8.82625,0 0,8.82625 z m 1.47375,-7.35125 5.8775,0 0,5.8775 -5.8775,0 0,-5.8775 z M 10.78875,8.825 l 8.82625,0 0,-8.825 -8.82625,0 0,8.825 z m 1.47375,-7.35125 5.8775,0 0,5.87625 -5.8775,0 0,-5.87625 z m -1.82375,36.84 c -1.86375,0 -2.195,1.64375 -2.195,3.18875 0,2.7275 1.2025,3.0125 2.1725,3.0125 1.29,0 2.085,-0.82125 2.085,-2.12625 l -1.125,0 c 0,0.35125 -0.0987,1.315 -0.94875,1.315 -0.8925,0 -0.99125,-1.0075 -0.99125,-1.79625 l 0,-0.34 3.0975,0 0,-0.625 c 0,-1.6425 -0.44,-2.62875 -2.095,-2.62875 z m 0.90375,2.4425 -1.90625,0 0,-0.12 c 0,-0.76625 0.23,-1.51125 0.99125,-1.51125 0.67375,0 0.915,0.56875 0.915,1.31375 l 0,0.3175 z M 0,30.3975 l 8.82625,0 0,-8.825 -8.82625,0 0,8.825 z m 1.47375,-7.35125 5.87875,0 0,5.87625 -5.87875,0 0,-5.87625 z M 0,19.6125 l 8.82625,0 0,-8.825 -8.82625,0 0,8.825 z m 1.47375,-7.35125 5.87875,0 0,5.8775 -5.87875,0 0,-5.8775 z m 0.80625,24.2775 -2.23875,0 0,7.82375 2.23875,0 c 2.47,0 2.77875,-1.60125 2.77875,-3.9125 C 5.05875,38.1375 4.75,36.53875 2.28,36.53875 Z M 1.29875,37.48 l 1.03625,0 c 1.0925,0 1.4675,0.7675 1.4675,2.97 0,2.29 -0.43,2.97 -1.4675,2.97 l -1.03625,0 0,-5.94 z m 6.01375,-1.03 -1.19125,0 0,1.1825 1.19125,0 0,-1.1825 z m 0,2.01625 -1.19125,0 0,5.89625 1.19125,0 0,-5.89625 z m 10.13,-1.9275 -1.25625,0 0,7.82375 1.25625,0 0,-7.82375 z m 16.99625,4.87375 c 0,1.83125 0.56125,3.1025 2.205,3.1025 1.655,0 2.2175,-1.27125 2.2175,-3.1025 0,-1.82875 -0.48625,-3.09875 -2.2175,-3.09875 -1.72,0 -2.205,1.27 -2.205,3.09875 z m 1.19,0 c 0,-1.3025 0.155,-2.2225 1.015,-2.2225 0.87125,0 1.025,0.92 1.025,2.2225 0,1.5025 -0.15375,2.22625 -1.025,2.22625 -0.86,0 -1.015,-0.72375 -1.015,-2.22625 z m 5.28375,-4.875 -1.19125,0 0,7.82375 1.125,0 0,-0.7225 0.0213,0 c 0.155,0.3825 0.45375,0.87625 1.3025,0.87625 1.38875,0 1.94,-1.15 1.94,-3.1775 0,-2.61875 -0.92625,-3.02375 -1.83,-3.02375 -0.64,0 -1.125,0.3175 -1.34625,0.8425 l -0.0213,0 0,-2.61875 z M 40.8462,41.48 c 0,-1.4125 0.165,-2.22375 1.08,-2.22375 0.68375,0 0.92625,0.5475 0.92625,2.13625 0,1.33625 -0.175,2.18 -1.0025,2.18 -0.81625,0 -1.00375,-0.8325 -1.00375,-2.0925 z m 5.365,-5.03 -1.19125,0 0,1.1825 1.19125,0 0,-1.1825 z m 0,2.01625 -1.19125,0 0,5.89625 1.19125,0 0,-5.89625 z m 2.30125,-1.9275 -1.19125,0 0,7.82375 1.19125,0 0,-7.82375 z m 2.3025,-0.0888 -1.19,0 0,1.1825 1.19,0 0,-1.1825 z m 0,2.01625 -1.19,0 0,5.89625 1.19,0 0,-5.89625 z m 0.93125,3.03625 c 0,2.7275 1.20125,3.0125 2.1725,3.0125 1.28875,0 2.08375,-0.82125 2.08375,-2.12625 l -1.12375,0 c 0,0.35125 -0.1,1.315 -0.94875,1.315 -0.89375,0 -0.9925,-1.0075 -0.9925,-1.79625 l 0,-0.34 3.09875,0 0,-0.625 c 0,-1.6425 -0.44125,-2.62875 -2.09625,-2.62875 -1.8625,0 -2.19375,1.64375 -2.19375,3.18875 z m 1.19125,-0.86625 c 0,-0.76625 0.23,-1.51125 0.9925,-1.51125 0.6725,0 0.915,0.56875 0.915,1.31375 l 0,0.3175 -1.9075,0 0,-0.12 z m 17.88125,-4.18625 -1.19125,0 0,1.1825 1.19125,0 0,-1.1825 z m 0,2.01625 -1.19125,0 0,5.89625 1.19125,0 0,-5.89625 z m 5.1275,0 -0.8175,0 0,0.8775 0.8175,0 0,3.66 c 0,1.205 0.39625,1.42375 1.20125,1.42375 0.375,0 0.70625,-0.0325 0.96,-0.0987 l 0,-0.87625 c -0.11,0.0213 -0.25375,0.0325 -0.43,0.0325 -0.40875,0 -0.54,-0.165 -0.54,-0.625 l 0,-3.51625 0.97,0 0,-0.8775 -0.97,0 0,-1.67625 -1.19125,0 0,1.67625 z m 3.68375,3.99875 -1.06,0 0,0.22 c 0,1.14 0.4525,1.83 1.9525,1.83 1.2025,0 2.12875,-0.5375 2.12875,-1.7975 0,-0.93125 -0.4075,-1.4025 -1.29125,-1.6975 l -0.76,-0.26375 c -0.63,-0.21875 -0.8375,-0.405 -0.8375,-0.865 0,-0.5475 0.37375,-0.7675 0.84875,-0.7675 0.61625,0 0.7825,0.43875 0.7825,0.90875 l 0,0.155 1.125,0 0,-0.26375 c 0,-0.735 -0.3425,-1.61 -1.85375,-1.61 -1.22375,0 -2.0275,0.51375 -2.0275,1.62125 0,0.9425 0.37375,1.3925 1.2675,1.69875 l 0.97,0.34 c 0.42,0.14125 0.65125,0.4275 0.65125,0.865 0,0.53625 -0.32,0.865 -0.97125,0.865 -0.68375,0 -0.925,-0.3725 -0.925,-1.0525 l 0,-0.18625 z M 83.2662,41.4137 c 0,1.83 0.485,3.10125 2.205,3.10125 1.4675,0 1.95375,-0.88625 2.03,-2.30125 l -1.12375,0 c 0,0.88875 -0.2425,1.435 -0.90625,1.425 -0.85875,0 -1.0125,-0.92125 -1.0125,-2.225 0,-1.30375 0.15375,-2.22375 1.0125,-2.22375 0.69625,-0.0225 0.85,0.69 0.85,1.23875 l 1.19125,0 c 0,-0.735 -0.26375,-2.1375 -2.04125,-2.115 -1.72,0 -2.205,1.27 -2.205,3.1 z m 6.245,-4.875 -1.19125,0 0,7.82375 1.19125,0 0,-3.95625 c 0,-0.76625 0.4625,-1.15125 0.94875,-1.15125 0.595,0 0.8275,0.29625 0.8275,1.06375 l 0,4.04375 1.19,0 0,-4.45 c 0,-1.19375 -0.57375,-1.59875 -1.4775,-1.59875 -0.6075,0 -1.125,0.30625 -1.45625,0.81125 l -0.0325,-0.0238 0,-2.5625 z m 3.81125,6.32125 c 0,1.12875 0.59625,1.655 1.545,1.655 0.695,0 1.1575,-0.285 1.4775,-0.865 l 0.0225,0 c 0.0325,0.56875 0.47375,0.7775 1.0025,0.7775 0.2325,0 0.44125,-0.0762 0.585,-0.1425 l 0,-0.76625 c -0.0437,0.0213 -0.12125,0.0312 -0.19875,0.0312 -0.175,0 -0.30875,-0.19625 -0.30875,-0.415 l 0,-3.375 c 0,-1.04125 -0.8375,-1.4475 -1.885,-1.4475 -1.56625,0 -2.08625,0.69 -2.08625,1.94 l 1.12625,0 c 0,-0.57 0.11,-1.12875 0.905,-1.12875 0.6275,0 0.815,0.34 0.815,0.87625 0,0.515 -0.26375,0.63625 -0.69375,0.75625 l -0.9275,0.2525 c -0.80375,0.26375 -1.37875,0.5375 -1.37875,1.85125 z M 94.5137,42.7512 c 0,-0.43875 0.14375,-0.78875 0.48625,-0.95375 0.3525,-0.16375 1.015,-0.30625 1.3225,-0.5475 l 0,0.985 c 0,0.8675 -0.3525,1.40375 -1.07,1.40375 -0.495,0 -0.73875,-0.395 -0.73875,-0.8875 z m 4.43625,-4.285 -0.8275,0 0,0.8775 0.8275,0 0,5.0175 1.19125,0 0,-5.0175 0.97,0 0,-0.8775 -0.97,0 0,-0.515 c 0,-0.39375 0.19875,-0.55875 0.63875,-0.55875 l 0.33125,0 0,-0.91 c -0.17625,-0.0212 -0.39625,-0.0325 -0.65,-0.0325 -0.97125,0 -1.51125,0.35125 -1.51125,1.46875 l 0,0.5475 z m 3.295,0 -0.8175,0 0,0.8775 0.8175,0 0,3.66 c 0,1.205 0.39625,1.42375 1.20125,1.42375 0.375,0 0.70625,-0.0325 0.96,-0.0987 l 0,-0.87625 c -0.11,0.0213 -0.25375,0.0325 -0.43,0.0325 -0.40875,0 -0.54,-0.165 -0.54,-0.625 l 0,-3.51625 0.97,0 0,-0.8775 -0.97,0 0,-1.67625 -1.19125,0 0,1.67625"/>
</svg>